<?xml version="1.0" encoding="UTF-8"?><svg id="Layer_1" xmlns="http://www.w3.org/2000/svg" viewBox="0 0 1920 1600.4"><defs><style>.cls-1{fill:none;stroke:#ff4d06;stroke-miterlimit:10;}</style></defs><path class="cls-1" d="M27.43,23.98c14.34,0,14.34,20,28.69,20s14.35-20,28.69-20,14.35,20,28.69,20,14.35-20,28.69-20,14.35,20,28.69,20,14.35-20,28.69-20,14.35,20,28.69,20,14.35-20,28.69-20,14.35,20,28.69,20,14.35-20,28.69-20,14.35,20,28.69,20,14.35-20,28.69-20,14.35,20,28.69,20,14.35-20,28.69-20,14.35,20,28.69,20,14.35-20,28.69-20,14.35,20,28.69,20,14.35-20,28.69-20,14.35,20,28.69,20,14.35-20,28.69-20,14.35,20,28.69,20,14.35-20,28.69-20,14.35,20,28.69,20,14.35-20,28.69-20,14.35,20,28.69,20,14.35-20,28.69-20,14.35,20,28.69,20,14.35-20,28.69-20,14.35,20,28.69,20,14.35-20,28.7-20,14.35,20,28.69,20,14.35-20,28.69-20,14.35,20,28.69,20,14.35-20,28.69-20,14.35,20,28.7,20,14.35-20,28.7-20,14.34,20,28.69,20,14.35-20,28.69-20,14.34,20,28.69,20,14.35-20,28.69-20,14.35,20,28.69,20,14.35-20,28.69-20,14.35,20,28.69,20,14.35-20,28.7-20,14.35,20,28.69,20,14.35-20,28.69-20,14.35,20,28.69,20,14.35-20,28.69-20,14.35,20,28.7,20,14.35-20,28.7-20,14.35,20,28.7,20,14.35-20,28.7-20,14.35,20,28.7,20,14.35-20,28.7-20,14.35,20,28.7,20,14.35-20,28.7-20,14.35,20,28.69,20,14.35-20,28.7-20,14.35,20,28.7,20,14.35-20,28.7-20,14.35,20,28.7,20,14.35-20,28.7-20,14.35,20,28.7,20,14.35-20,28.7-20,14.35,20,28.7,20"/><path class="cls-1" d="M27.43,52.2c14.34,0,14.34,20,28.69,20s14.35-20,28.69-20,14.35,20,28.69,20,14.35-20,28.69-20,14.35,20,28.69,20,14.35-20,28.69-20,14.35,20,28.69,20,14.35-20,28.69-20,14.35,20,28.69,20,14.35-20,28.69-20,14.35,20,28.69,20,14.35-20,28.69-20,14.35,20,28.69,20,14.35-20,28.69-20,14.35,20,28.69,20,14.35-20,28.69-20,14.35,20,28.69,20,14.35-20,28.69-20,14.35,20,28.69,20,14.35-20,28.69-20,14.35,20,28.69,20,14.35-20,28.69-20,14.35,20,28.69,20,14.35-20,28.69-20,14.35,20,28.69,20,14.35-20,28.69-20,14.35,20,28.69,20,14.35-20,28.69-20,14.35,20,28.69,20,14.35-20,28.7-20,14.35,20,28.69,20,14.35-20,28.69-20,14.35,20,28.69,20,14.35-20,28.69-20,14.35,20,28.7,20,14.35-20,28.7-20,14.34,20,28.69,20,14.35-20,28.69-20,14.34,20,28.69,20,14.35-20,28.69-20,14.35,20,28.69,20,14.35-20,28.69-20,14.35,20,28.69,20,14.35-20,28.7-20,14.35,20,28.69,20,14.35-20,28.69-20,14.35,20,28.69,20,14.35-20,28.69-20,14.35,20,28.7,20,14.35-20,28.7-20,14.35,20,28.7,20,14.35-20,28.7-20,14.35,20,28.7,20,14.35-20,28.7-20,14.35,20,28.7,20,14.35-20,28.7-20,14.35,20,28.69,20,14.35-20,28.7-20,14.35,20,28.7,20,14.35-20,28.7-20,14.35,20,28.7,20,14.35-20,28.7-20,14.35,20,28.7,20,14.35-20,28.7-20,14.35,20,28.7,20"/><path class="cls-1" d="M27.43,80.41c14.34,0,14.34,20,28.69,20s14.35-20,28.69-20,14.35,20,28.69,20,14.35-20,28.69-20,14.35,20,28.69,20,14.35-20,28.69-20,14.35,20,28.69,20,14.35-20,28.69-20,14.35,20,28.69,20,14.35-20,28.69-20,14.35,20,28.69,20,14.35-20,28.69-20,14.35,20,28.69,20,14.35-20,28.69-20,14.35,20,28.69,20,14.35-20,28.69-20,14.35,20,28.69,20,14.35-20,28.69-20,14.35,20,28.69,20,14.35-20,28.69-20,14.35,20,28.69,20,14.35-20,28.69-20,14.35,20,28.69,20,14.35-20,28.69-20,14.35,20,28.69,20,14.35-20,28.69-20,14.35,20,28.69,20,14.35-20,28.69-20,14.35,20,28.69,20,14.35-20,28.7-20,14.35,20,28.69,20,14.35-20,28.69-20,14.35,20,28.69,20,14.35-20,28.69-20,14.35,20,28.7,20,14.35-20,28.7-20,14.34,20,28.69,20,14.35-20,28.69-20,14.34,20,28.69,20,14.35-20,28.69-20,14.35,20,28.69,20,14.35-20,28.69-20,14.35,20,28.69,20,14.35-20,28.7-20,14.35,20,28.69,20,14.35-20,28.69-20,14.35,20,28.69,20,14.35-20,28.69-20,14.35,20,28.7,20,14.35-20,28.7-20,14.35,20,28.7,20,14.35-20,28.7-20,14.35,20,28.7,20,14.35-20,28.7-20,14.35,20,28.7,20,14.35-20,28.7-20,14.35,20,28.69,20,14.35-20,28.7-20,14.35,20,28.7,20,14.35-20,28.7-20,14.35,20,28.7,20,14.35-20,28.7-20,14.35,20,28.7,20,14.35-20,28.7-20,14.35,20,28.7,20"/><path class="cls-1" d="M27.43,108.63c14.34,0,14.34,20,28.69,20s14.35-20,28.69-20,14.35,20,28.69,20,14.35-20,28.69-20,14.35,20,28.69,20,14.35-20,28.69-20,14.35,20,28.69,20,14.35-20,28.69-20,14.35,20,28.69,20,14.35-20,28.69-20,14.35,20,28.69,20,14.35-20,28.69-20,14.35,20,28.69,20,14.35-20,28.69-20,14.35,20,28.69,20,14.35-20,28.69-20,14.35,20,28.69,20,14.35-20,28.69-20,14.35,20,28.69,20,14.35-20,28.69-20,14.35,20,28.69,20,14.35-20,28.69-20,14.35,20,28.69,20,14.35-20,28.69-20,14.35,20,28.69,20,14.35-20,28.69-20,14.35,20,28.69,20,14.35-20,28.69-20,14.35,20,28.69,20,14.35-20,28.7-20,14.35,20,28.69,20,14.35-20,28.69-20,14.35,20,28.69,20,14.35-20,28.69-20,14.35,20,28.7,20,14.35-20,28.7-20,14.34,20,28.69,20,14.35-20,28.69-20,14.34,20,28.69,20,14.35-20,28.69-20,14.35,20,28.69,20,14.35-20,28.69-20,14.35,20,28.69,20,14.35-20,28.7-20,14.35,20,28.69,20,14.35-20,28.69-20,14.35,20,28.69,20,14.35-20,28.69-20,14.35,20,28.7,20,14.35-20,28.7-20,14.35,20,28.7,20,14.35-20,28.7-20,14.35,20,28.7,20,14.35-20,28.7-20,14.35,20,28.7,20,14.35-20,28.7-20,14.35,20,28.69,20,14.35-20,28.7-20,14.35,20,28.7,20,14.35-20,28.7-20,14.35,20,28.7,20,14.35-20,28.7-20,14.35,20,28.7,20,14.35-20,28.7-20,14.35,20,28.7,20"/><path class="cls-1" d="M27.43,136.84c14.34,0,14.34,20,28.69,20s14.35-20,28.69-20,14.35,20,28.69,20,14.35-20,28.69-20,14.35,20,28.69,20,14.35-20,28.69-20,14.35,20,28.69,20,14.35-20,28.69-20,14.35,20,28.69,20,14.35-20,28.69-20,14.35,20,28.69,20,14.35-20,28.69-20,14.35,20,28.69,20,14.35-20,28.69-20,14.35,20,28.69,20,14.35-20,28.69-20,14.35,20,28.69,20,14.35-20,28.69-20,14.35,20,28.69,20,14.35-20,28.69-20,14.35,20,28.69,20,14.35-20,28.69-20,14.35,20,28.69,20,14.35-20,28.69-20,14.35,20,28.69,20,14.35-20,28.69-20,14.35,20,28.69,20,14.35-20,28.69-20,14.35,20,28.69,20,14.35-20,28.7-20,14.35,20,28.69,20,14.35-20,28.69-20,14.35,20,28.69,20,14.35-20,28.69-20,14.35,20,28.7,20,14.35-20,28.7-20,14.34,20,28.69,20,14.35-20,28.69-20,14.34,20,28.69,20,14.35-20,28.69-20,14.35,20,28.69,20,14.35-20,28.69-20,14.35,20,28.69,20,14.35-20,28.7-20,14.35,20,28.69,20,14.35-20,28.69-20,14.35,20,28.69,20,14.35-20,28.69-20,14.35,20,28.7,20,14.35-20,28.7-20,14.35,20,28.7,20,14.35-20,28.7-20,14.35,20,28.7,20,14.35-20,28.7-20,14.35,20,28.7,20,14.35-20,28.7-20,14.35,20,28.69,20,14.35-20,28.7-20,14.35,20,28.7,20,14.35-20,28.7-20,14.35,20,28.7,20,14.35-20,28.7-20,14.35,20,28.7,20,14.35-20,28.7-20,14.35,20,28.7,20"/><path class="cls-1" d="M27.43,165.05c14.34,0,14.34,20,28.69,20s14.35-20,28.69-20,14.35,20,28.69,20,14.35-20,28.69-20,14.35,20,28.69,20,14.35-20,28.69-20,14.35,20,28.69,20,14.35-20,28.69-20,14.35,20,28.69,20,14.35-20,28.69-20,14.35,20,28.69,20,14.35-20,28.69-20,14.35,20,28.69,20,14.35-20,28.69-20,14.35,20,28.69,20,14.35-20,28.69-20,14.35,20,28.69,20,14.35-20,28.69-20,14.35,20,28.69,20,14.35-20,28.69-20,14.35,20,28.69,20,14.35-20,28.69-20,14.35,20,28.69,20,14.35-20,28.69-20,14.35,20,28.69,20,14.35-20,28.69-20,14.35,20,28.69,20,14.35-20,28.69-20,14.35,20,28.69,20,14.35-20,28.7-20,14.35,20,28.69,20,14.35-20,28.69-20,14.35,20,28.69,20,14.35-20,28.69-20,14.35,20,28.7,20,14.35-20,28.7-20,14.34,20,28.69,20,14.35-20,28.69-20,14.34,20,28.69,20,14.35-20,28.69-20,14.35,20,28.69,20,14.35-20,28.69-20,14.35,20,28.69,20,14.35-20,28.7-20,14.35,20,28.69,20,14.35-20,28.69-20,14.35,20,28.69,20,14.35-20,28.69-20,14.35,20,28.7,20,14.35-20,28.7-20,14.35,20,28.7,20,14.35-20,28.7-20,14.35,20,28.7,20,14.35-20,28.7-20,14.35,20,28.7,20,14.35-20,28.7-20,14.35,20,28.69,20,14.35-20,28.7-20,14.35,20,28.7,20,14.35-20,28.7-20,14.35,20,28.7,20,14.35-20,28.7-20,14.35,20,28.7,20,14.35-20,28.7-20,14.35,20,28.7,20"/><path class="cls-1" d="M27.43,193.27c14.34,0,14.34,20,28.69,20s14.35-20,28.69-20,14.35,20,28.69,20,14.35-20,28.69-20,14.35,20,28.69,20,14.35-20,28.69-20,14.35,20,28.69,20,14.35-20,28.69-20,14.35,20,28.69,20,14.35-20,28.69-20,14.35,20,28.69,20,14.35-20,28.69-20,14.35,20,28.69,20,14.35-20,28.69-20,14.35,20,28.69,20,14.35-20,28.69-20,14.35,20,28.69,20,14.35-20,28.69-20,14.35,20,28.69,20,14.35-20,28.69-20,14.35,20,28.69,20,14.35-20,28.69-20,14.35,20,28.69,20,14.35-20,28.69-20,14.35,20,28.69,20,14.35-20,28.69-20,14.35,20,28.69,20,14.35-20,28.69-20,14.35,20,28.69,20,14.35-20,28.7-20,14.35,20,28.69,20,14.35-20,28.69-20,14.35,20,28.69,20,14.35-20,28.69-20,14.35,20,28.7,20,14.35-20,28.7-20,14.34,20,28.69,20,14.35-20,28.69-20,14.34,20,28.69,20,14.35-20,28.69-20,14.35,20,28.69,20,14.35-20,28.69-20,14.35,20,28.69,20,14.35-20,28.7-20,14.35,20,28.69,20,14.35-20,28.69-20,14.35,20,28.69,20,14.35-20,28.69-20,14.35,20,28.7,20,14.35-20,28.7-20,14.35,20,28.7,20,14.35-20,28.7-20,14.35,20,28.7,20,14.35-20,28.7-20,14.35,20,28.7,20,14.35-20,28.7-20,14.35,20,28.69,20,14.35-20,28.7-20,14.35,20,28.7,20,14.35-20,28.7-20,14.35,20,28.7,20,14.35-20,28.7-20,14.35,20,28.7,20,14.35-20,28.7-20,14.35,20,28.7,20"/><path class="cls-1" d="M27.43,221.48c14.34,0,14.34,20,28.69,20s14.35-20,28.69-20,14.35,20,28.69,20,14.35-20,28.69-20,14.35,20,28.69,20,14.35-20,28.69-20,14.35,20,28.69,20,14.35-20,28.69-20,14.35,20,28.69,20,14.35-20,28.69-20,14.35,20,28.69,20,14.35-20,28.69-20,14.35,20,28.69,20,14.35-20,28.69-20,14.35,20,28.69,20,14.35-20,28.69-20,14.35,20,28.69,20,14.35-20,28.69-20,14.35,20,28.69,20,14.35-20,28.69-20,14.35,20,28.69,20,14.35-20,28.69-20,14.35,20,28.69,20,14.35-20,28.69-20,14.35,20,28.69,20,14.35-20,28.69-20,14.35,20,28.69,20,14.35-20,28.69-20,14.35,20,28.69,20,14.35-20,28.7-20,14.35,20,28.69,20,14.35-20,28.69-20,14.35,20,28.69,20,14.35-20,28.69-20,14.35,20,28.7,20,14.35-20,28.7-20,14.34,20,28.69,20,14.35-20,28.69-20,14.34,20,28.69,20,14.35-20,28.69-20,14.35,20,28.69,20,14.35-20,28.69-20,14.35,20,28.69,20,14.35-20,28.7-20,14.35,20,28.69,20,14.35-20,28.69-20,14.35,20,28.69,20,14.35-20,28.69-20,14.35,20,28.7,20,14.35-20,28.7-20,14.35,20,28.7,20,14.35-20,28.7-20,14.35,20,28.7,20,14.35-20,28.7-20,14.35,20,28.7,20,14.35-20,28.7-20,14.35,20,28.69,20,14.35-20,28.7-20,14.35,20,28.7,20,14.35-20,28.7-20,14.35,20,28.7,20,14.35-20,28.7-20,14.35,20,28.7,20,14.35-20,28.7-20,14.35,20,28.7,20"/><path class="cls-1" d="M27.43,249.7c14.34,0,14.34,20,28.69,20s14.35-20,28.69-20,14.35,20,28.69,20,14.35-20,28.69-20,14.35,20,28.69,20,14.35-20,28.69-20,14.35,20,28.69,20,14.35-20,28.69-20,14.35,20,28.69,20,14.35-20,28.69-20,14.35,20,28.69,20,14.35-20,28.69-20,14.35,20,28.69,20,14.35-20,28.69-20,14.35,20,28.69,20,14.35-20,28.69-20,14.35,20,28.69,20,14.35-20,28.69-20,14.35,20,28.69,20,14.35-20,28.69-20,14.35,20,28.69,20,14.35-20,28.69-20,14.35,20,28.69,20,14.35-20,28.69-20,14.35,20,28.69,20,14.35-20,28.69-20,14.35,20,28.69,20,14.35-20,28.69-20,14.35,20,28.69,20,14.35-20,28.7-20,14.35,20,28.69,20,14.35-20,28.69-20,14.35,20,28.69,20,14.35-20,28.69-20,14.35,20,28.7,20,14.35-20,28.7-20,14.34,20,28.69,20,14.35-20,28.69-20,14.34,20,28.69,20,14.35-20,28.69-20,14.35,20,28.69,20,14.35-20,28.69-20,14.35,20,28.69,20,14.35-20,28.7-20,14.35,20,28.69,20,14.35-20,28.69-20,14.35,20,28.69,20,14.35-20,28.69-20,14.35,20,28.7,20,14.35-20,28.7-20,14.35,20,28.7,20,14.35-20,28.7-20,14.35,20,28.7,20,14.35-20,28.7-20,14.35,20,28.7,20,14.35-20,28.7-20,14.35,20,28.69,20,14.35-20,28.7-20,14.35,20,28.7,20,14.35-20,28.7-20,14.35,20,28.7,20,14.35-20,28.7-20,14.35,20,28.7,20,14.35-20,28.7-20,14.35,20,28.7,20"/><path class="cls-1" d="M27.43,277.91c14.34,0,14.34,20,28.69,20s14.35-20,28.69-20,14.35,20,28.69,20,14.35-20,28.69-20,14.35,20,28.69,20,14.35-20,28.69-20,14.35,20,28.69,20,14.35-20,28.69-20,14.35,20,28.69,20,14.35-20,28.69-20,14.35,20,28.69,20,14.35-20,28.69-20,14.35,20,28.69,20,14.35-20,28.69-20,14.35,20,28.69,20,14.35-20,28.69-20,14.35,20,28.69,20,14.35-20,28.69-20,14.35,20,28.69,20,14.35-20,28.69-20,14.35,20,28.69,20,14.35-20,28.69-20,14.35,20,28.69,20,14.35-20,28.69-20,14.35,20,28.69,20,14.35-20,28.69-20,14.35,20,28.69,20,14.35-20,28.69-20,14.35,20,28.69,20,14.35-20,28.7-20,14.35,20,28.69,20,14.35-20,28.69-20,14.35,20,28.69,20,14.35-20,28.69-20,14.35,20,28.7,20,14.35-20,28.7-20,14.34,20,28.69,20,14.35-20,28.69-20,14.34,20,28.69,20,14.35-20,28.69-20,14.35,20,28.69,20,14.35-20,28.69-20,14.35,20,28.69,20,14.35-20,28.7-20,14.35,20,28.69,20,14.35-20,28.69-20,14.35,20,28.69,20,14.35-20,28.69-20,14.35,20,28.7,20,14.35-20,28.7-20,14.35,20,28.7,20,14.35-20,28.7-20,14.35,20,28.7,20,14.35-20,28.7-20,14.35,20,28.7,20,14.35-20,28.7-20,14.35,20,28.69,20,14.35-20,28.7-20,14.35,20,28.7,20,14.35-20,28.7-20,14.35,20,28.7,20,14.35-20,28.7-20,14.35,20,28.7,20,14.35-20,28.7-20,14.35,20,28.7,20"/><path class="cls-1" d="M27.43,306.13c14.34,0,14.34,20,28.69,20s14.35-20,28.69-20,14.35,20,28.69,20,14.35-20,28.69-20,14.35,20,28.69,20,14.35-20,28.69-20,14.35,20,28.69,20,14.35-20,28.69-20,14.35,20,28.69,20,14.35-20,28.69-20,14.35,20,28.69,20,14.35-20,28.69-20,14.35,20,28.69,20,14.35-20,28.69-20,14.35,20,28.69,20,14.35-20,28.69-20,14.35,20,28.69,20,14.35-20,28.69-20,14.35,20,28.69,20,14.35-20,28.69-20,14.35,20,28.69,20,14.35-20,28.69-20,14.35,20,28.69,20,14.35-20,28.69-20,14.35,20,28.69,20,14.35-20,28.69-20,14.35,20,28.69,20,14.35-20,28.69-20,14.35,20,28.69,20,14.35-20,28.7-20,14.35,20,28.69,20,14.35-20,28.69-20,14.35,20,28.69,20,14.35-20,28.69-20,14.35,20,28.7,20,14.35-20,28.7-20,14.34,20,28.69,20,14.35-20,28.69-20,14.34,20,28.69,20,14.35-20,28.69-20,14.35,20,28.69,20,14.35-20,28.69-20,14.35,20,28.69,20,14.35-20,28.7-20,14.35,20,28.69,20,14.35-20,28.69-20,14.35,20,28.69,20,14.35-20,28.69-20,14.35,20,28.7,20,14.35-20,28.7-20,14.35,20,28.7,20,14.35-20,28.7-20,14.35,20,28.7,20,14.35-20,28.7-20,14.35,20,28.7,20,14.35-20,28.7-20,14.35,20,28.69,20,14.35-20,28.7-20,14.35,20,28.7,20,14.35-20,28.7-20,14.35,20,28.7,20,14.35-20,28.7-20,14.35,20,28.7,20,14.35-20,28.7-20,14.35,20,28.7,20"/><path class="cls-1" d="M27.43,334.34c14.34,0,14.34,20,28.69,20s14.35-20,28.69-20,14.35,20,28.69,20,14.35-20,28.69-20,14.35,20,28.69,20,14.35-20,28.69-20,14.35,20,28.69,20,14.35-20,28.69-20,14.35,20,28.69,20,14.35-20,28.69-20,14.35,20,28.69,20,14.35-20,28.69-20,14.35,20,28.69,20,14.35-20,28.69-20,14.35,20,28.69,20,14.35-20,28.69-20,14.35,20,28.69,20,14.35-20,28.69-20,14.35,20,28.69,20,14.35-20,28.69-20,14.35,20,28.69,20,14.35-20,28.69-20,14.35,20,28.69,20,14.35-20,28.69-20,14.35,20,28.69,20,14.35-20,28.69-20,14.35,20,28.69,20,14.35-20,28.69-20,14.35,20,28.69,20,14.35-20,28.7-20,14.35,20,28.69,20,14.35-20,28.69-20,14.35,20,28.69,20,14.35-20,28.69-20,14.35,20,28.7,20,14.35-20,28.7-20,14.34,20,28.69,20,14.35-20,28.69-20,14.34,20,28.69,20,14.35-20,28.69-20,14.35,20,28.69,20,14.35-20,28.69-20,14.35,20,28.69,20,14.35-20,28.7-20,14.35,20,28.69,20,14.35-20,28.69-20,14.35,20,28.69,20,14.35-20,28.69-20,14.35,20,28.7,20,14.35-20,28.7-20,14.35,20,28.7,20,14.35-20,28.7-20,14.35,20,28.7,20,14.35-20,28.7-20,14.35,20,28.7,20,14.35-20,28.7-20,14.35,20,28.69,20,14.35-20,28.7-20,14.35,20,28.7,20,14.35-20,28.7-20,14.35,20,28.7,20,14.35-20,28.7-20,14.35,20,28.7,20,14.35-20,28.7-20,14.35,20,28.7,20"/><path class="cls-1" d="M27.43,362.55c14.34,0,14.34,20,28.69,20s14.35-20,28.69-20,14.35,20,28.69,20,14.35-20,28.69-20,14.35,20,28.69,20,14.35-20,28.69-20,14.35,20,28.69,20,14.35-20,28.69-20,14.35,20,28.69,20,14.35-20,28.69-20,14.35,20,28.69,20,14.35-20,28.69-20,14.35,20,28.69,20,14.35-20,28.69-20,14.35,20,28.69,20,14.35-20,28.69-20,14.35,20,28.69,20,14.35-20,28.69-20,14.35,20,28.69,20,14.35-20,28.69-20,14.35,20,28.69,20,14.35-20,28.69-20,14.35,20,28.69,20,14.35-20,28.69-20,14.35,20,28.69,20,14.35-20,28.69-20,14.35,20,28.69,20,14.35-20,28.69-20,14.35,20,28.69,20,14.35-20,28.7-20,14.35,20,28.69,20,14.35-20,28.69-20,14.35,20,28.69,20,14.35-20,28.69-20,14.35,20,28.7,20,14.35-20,28.7-20,14.34,20,28.69,20,14.35-20,28.69-20,14.34,20,28.69,20,14.35-20,28.69-20,14.35,20,28.69,20,14.35-20,28.69-20,14.35,20,28.69,20,14.35-20,28.7-20,14.35,20,28.69,20,14.35-20,28.69-20,14.35,20,28.69,20,14.35-20,28.69-20,14.35,20,28.7,20,14.35-20,28.7-20,14.35,20,28.7,20,14.35-20,28.7-20,14.35,20,28.7,20,14.35-20,28.7-20,14.35,20,28.7,20,14.35-20,28.7-20,14.35,20,28.69,20,14.35-20,28.7-20,14.35,20,28.7,20,14.35-20,28.7-20,14.35,20,28.7,20,14.35-20,28.7-20,14.35,20,28.7,20,14.35-20,28.7-20,14.35,20,28.7,20"/><path class="cls-1" d="M27.43,390.77c14.34,0,14.34,20,28.69,20s14.35-20,28.69-20,14.35,20,28.69,20,14.35-20,28.69-20,14.35,20,28.69,20,14.35-20,28.69-20,14.35,20,28.69,20,14.35-20,28.69-20,14.35,20,28.69,20,14.35-20,28.69-20,14.35,20,28.69,20,14.35-20,28.69-20,14.35,20,28.69,20,14.35-20,28.69-20,14.35,20,28.69,20,14.35-20,28.69-20,14.35,20,28.69,20,14.35-20,28.69-20,14.35,20,28.69,20,14.35-20,28.69-20,14.35,20,28.69,20,14.35-20,28.69-20,14.35,20,28.69,20,14.35-20,28.69-20,14.35,20,28.69,20,14.35-20,28.69-20,14.35,20,28.69,20,14.35-20,28.69-20,14.35,20,28.69,20,14.35-20,28.7-20,14.35,20,28.69,20,14.35-20,28.69-20,14.35,20,28.69,20,14.35-20,28.69-20,14.35,20,28.7,20,14.35-20,28.7-20,14.34,20,28.69,20,14.35-20,28.69-20,14.34,20,28.69,20,14.35-20,28.69-20,14.35,20,28.69,20,14.35-20,28.69-20,14.35,20,28.69,20,14.35-20,28.7-20,14.35,20,28.69,20,14.35-20,28.69-20,14.35,20,28.69,20,14.35-20,28.69-20,14.35,20,28.7,20,14.35-20,28.7-20,14.35,20,28.7,20,14.35-20,28.7-20,14.35,20,28.7,20,14.35-20,28.7-20,14.35,20,28.7,20,14.35-20,28.7-20,14.35,20,28.69,20,14.35-20,28.7-20,14.35,20,28.7,20,14.35-20,28.7-20,14.35,20,28.7,20,14.35-20,28.7-20,14.35,20,28.7,20,14.35-20,28.7-20,14.35,20,28.7,20"/><path class="cls-1" d="M27.43,418.98c14.34,0,14.34,20,28.69,20s14.35-20,28.69-20,14.35,20,28.69,20,14.35-20,28.69-20,14.35,20,28.69,20,14.35-20,28.69-20,14.35,20,28.69,20,14.35-20,28.69-20,14.35,20,28.69,20,14.35-20,28.69-20,14.35,20,28.69,20,14.35-20,28.69-20,14.35,20,28.69,20,14.35-20,28.69-20,14.35,20,28.69,20,14.35-20,28.69-20,14.35,20,28.69,20,14.35-20,28.69-20,14.35,20,28.69,20,14.35-20,28.69-20,14.35,20,28.69,20,14.35-20,28.69-20,14.35,20,28.69,20,14.35-20,28.69-20,14.35,20,28.69,20,14.35-20,28.69-20,14.35,20,28.69,20,14.35-20,28.69-20,14.35,20,28.69,20,14.35-20,28.7-20,14.35,20,28.69,20,14.35-20,28.69-20,14.35,20,28.69,20,14.35-20,28.69-20,14.35,20,28.7,20,14.35-20,28.7-20,14.34,20,28.69,20,14.35-20,28.69-20,14.34,20,28.69,20,14.35-20,28.69-20,14.35,20,28.69,20,14.35-20,28.69-20,14.35,20,28.69,20,14.35-20,28.7-20,14.35,20,28.69,20,14.35-20,28.69-20,14.35,20,28.69,20,14.35-20,28.69-20,14.35,20,28.7,20,14.35-20,28.7-20,14.35,20,28.7,20,14.35-20,28.7-20,14.35,20,28.7,20,14.35-20,28.7-20,14.35,20,28.7,20,14.35-20,28.7-20,14.35,20,28.69,20,14.35-20,28.7-20,14.35,20,28.7,20,14.35-20,28.7-20,14.35,20,28.7,20,14.35-20,28.7-20,14.35,20,28.7,20,14.35-20,28.7-20,14.35,20,28.7,20"/><path class="cls-1" d="M27.43,447.2c14.34,0,14.34,20,28.69,20s14.35-20,28.69-20,14.35,20,28.69,20,14.35-20,28.69-20,14.35,20,28.69,20,14.35-20,28.69-20,14.35,20,28.69,20,14.35-20,28.69-20,14.35,20,28.69,20,14.35-20,28.69-20,14.35,20,28.69,20,14.35-20,28.69-20,14.35,20,28.69,20,14.35-20,28.69-20,14.35,20,28.69,20,14.35-20,28.69-20,14.35,20,28.69,20,14.35-20,28.69-20,14.35,20,28.69,20,14.35-20,28.69-20,14.35,20,28.69,20,14.35-20,28.69-20,14.35,20,28.69,20,14.35-20,28.69-20,14.35,20,28.69,20,14.35-20,28.69-20,14.35,20,28.69,20,14.35-20,28.69-20,14.35,20,28.69,20,14.35-20,28.7-20,14.35,20,28.69,20,14.35-20,28.69-20,14.35,20,28.69,20,14.35-20,28.69-20,14.35,20,28.7,20,14.35-20,28.7-20,14.34,20,28.69,20,14.35-20,28.69-20,14.34,20,28.69,20,14.35-20,28.69-20,14.35,20,28.69,20,14.35-20,28.69-20,14.35,20,28.69,20,14.35-20,28.7-20,14.35,20,28.69,20,14.35-20,28.69-20,14.35,20,28.69,20,14.35-20,28.69-20,14.35,20,28.7,20,14.35-20,28.7-20,14.35,20,28.7,20,14.35-20,28.7-20,14.35,20,28.7,20,14.35-20,28.7-20,14.35,20,28.7,20,14.35-20,28.7-20,14.35,20,28.69,20,14.35-20,28.7-20,14.35,20,28.7,20,14.35-20,28.7-20,14.35,20,28.7,20,14.35-20,28.7-20,14.35,20,28.7,20,14.35-20,28.7-20,14.35,20,28.7,20"/><path class="cls-1" d="M27.43,475.41c14.34,0,14.34,20,28.69,20s14.35-20,28.69-20,14.35,20,28.69,20,14.35-20,28.69-20,14.35,20,28.69,20,14.35-20,28.69-20,14.35,20,28.69,20,14.35-20,28.69-20,14.35,20,28.69,20,14.35-20,28.69-20,14.35,20,28.69,20,14.35-20,28.69-20,14.35,20,28.69,20,14.35-20,28.69-20,14.35,20,28.69,20,14.35-20,28.69-20,14.35,20,28.69,20,14.35-20,28.69-20,14.35,20,28.69,20,14.35-20,28.69-20,14.35,20,28.69,20,14.35-20,28.69-20,14.35,20,28.69,20,14.35-20,28.69-20,14.35,20,28.69,20,14.35-20,28.69-20,14.35,20,28.69,20,14.35-20,28.69-20,14.35,20,28.69,20,14.35-20,28.7-20,14.35,20,28.69,20,14.35-20,28.69-20,14.35,20,28.69,20,14.35-20,28.69-20,14.35,20,28.7,20,14.35-20,28.7-20,14.34,20,28.69,20,14.35-20,28.69-20,14.34,20,28.69,20,14.35-20,28.69-20,14.35,20,28.69,20,14.35-20,28.69-20,14.35,20,28.69,20,14.35-20,28.7-20,14.35,20,28.69,20,14.35-20,28.69-20,14.35,20,28.69,20,14.35-20,28.69-20,14.35,20,28.7,20,14.35-20,28.7-20,14.35,20,28.7,20,14.35-20,28.7-20,14.35,20,28.7,20,14.35-20,28.7-20,14.35,20,28.7,20,14.35-20,28.7-20,14.35,20,28.69,20,14.35-20,28.7-20,14.35,20,28.7,20,14.35-20,28.7-20,14.35,20,28.7,20,14.35-20,28.7-20,14.35,20,28.7,20,14.35-20,28.7-20,14.35,20,28.7,20"/><path class="cls-1" d="M27.43,503.62c14.34,0,14.34,20,28.69,20s14.35-20,28.69-20,14.35,20,28.69,20,14.35-20,28.69-20,14.35,20,28.69,20,14.35-20,28.69-20,14.35,20,28.69,20,14.35-20,28.69-20,14.35,20,28.69,20,14.35-20,28.69-20,14.35,20,28.69,20,14.35-20,28.69-20,14.35,20,28.69,20,14.35-20,28.69-20,14.35,20,28.69,20,14.35-20,28.69-20,14.35,20,28.69,20,14.35-20,28.69-20,14.35,20,28.69,20,14.35-20,28.69-20,14.35,20,28.69,20,14.35-20,28.69-20,14.35,20,28.69,20,14.35-20,28.69-20,14.35,20,28.69,20,14.35-20,28.69-20,14.35,20,28.69,20,14.35-20,28.69-20,14.35,20,28.69,20,14.35-20,28.7-20,14.35,20,28.69,20,14.35-20,28.69-20,14.35,20,28.69,20,14.35-20,28.69-20,14.35,20,28.7,20,14.35-20,28.7-20,14.34,20,28.69,20,14.35-20,28.69-20,14.34,20,28.69,20,14.35-20,28.69-20,14.35,20,28.69,20,14.35-20,28.69-20,14.35,20,28.69,20,14.35-20,28.7-20,14.35,20,28.69,20,14.35-20,28.69-20,14.35,20,28.69,20,14.35-20,28.69-20,14.35,20,28.7,20,14.35-20,28.7-20,14.35,20,28.7,20,14.35-20,28.7-20,14.35,20,28.7,20,14.35-20,28.7-20,14.35,20,28.7,20,14.35-20,28.7-20,14.35,20,28.69,20,14.35-20,28.7-20,14.35,20,28.7,20,14.35-20,28.7-20,14.35,20,28.7,20,14.35-20,28.7-20,14.35,20,28.7,20,14.35-20,28.7-20,14.35,20,28.7,20"/><path class="cls-1" d="M27.43,531.84c14.34,0,14.34,20,28.69,20s14.35-20,28.69-20,14.35,20,28.69,20,14.35-20,28.69-20,14.35,20,28.69,20,14.35-20,28.69-20,14.35,20,28.69,20,14.35-20,28.69-20,14.35,20,28.69,20,14.35-20,28.69-20,14.35,20,28.69,20,14.35-20,28.69-20,14.35,20,28.69,20,14.35-20,28.69-20,14.35,20,28.69,20,14.35-20,28.69-20,14.35,20,28.69,20,14.35-20,28.69-20,14.35,20,28.69,20,14.35-20,28.69-20,14.35,20,28.69,20,14.35-20,28.69-20,14.35,20,28.69,20,14.35-20,28.69-20,14.35,20,28.69,20,14.35-20,28.69-20,14.35,20,28.69,20,14.35-20,28.69-20,14.35,20,28.69,20,14.35-20,28.7-20,14.35,20,28.69,20,14.35-20,28.69-20,14.35,20,28.69,20,14.35-20,28.69-20,14.35,20,28.7,20,14.35-20,28.7-20,14.34,20,28.69,20,14.35-20,28.69-20,14.34,20,28.69,20,14.35-20,28.69-20,14.35,20,28.69,20,14.35-20,28.69-20,14.35,20,28.69,20,14.35-20,28.7-20,14.35,20,28.69,20,14.35-20,28.69-20,14.35,20,28.69,20,14.35-20,28.69-20,14.35,20,28.7,20,14.35-20,28.7-20,14.35,20,28.7,20,14.35-20,28.7-20,14.35,20,28.7,20,14.35-20,28.7-20,14.35,20,28.7,20,14.35-20,28.7-20,14.35,20,28.69,20,14.35-20,28.7-20,14.35,20,28.7,20,14.35-20,28.7-20,14.35,20,28.7,20,14.35-20,28.7-20,14.35,20,28.7,20,14.35-20,28.7-20,14.35,20,28.7,20"/><path class="cls-1" d="M27.43,560.05c14.34,0,14.34,20,28.69,20s14.35-20,28.69-20,14.35,20,28.69,20,14.35-20,28.69-20,14.35,20,28.69,20,14.35-20,28.69-20,14.35,20,28.69,20,14.35-20,28.69-20,14.35,20,28.69,20,14.35-20,28.69-20,14.35,20,28.69,20,14.35-20,28.69-20,14.35,20,28.69,20,14.35-20,28.69-20,14.35,20,28.69,20,14.35-20,28.69-20,14.35,20,28.69,20,14.35-20,28.69-20,14.35,20,28.69,20,14.35-20,28.69-20,14.35,20,28.69,20,14.35-20,28.69-20,14.35,20,28.69,20,14.35-20,28.69-20,14.35,20,28.69,20,14.35-20,28.69-20,14.35,20,28.69,20,14.35-20,28.69-20,14.35,20,28.69,20,14.35-20,28.7-20,14.35,20,28.69,20,14.35-20,28.69-20,14.35,20,28.69,20,14.35-20,28.69-20,14.35,20,28.7,20,14.35-20,28.7-20,14.34,20,28.69,20,14.35-20,28.69-20,14.34,20,28.69,20,14.35-20,28.69-20,14.35,20,28.69,20,14.35-20,28.69-20,14.35,20,28.69,20,14.35-20,28.7-20,14.35,20,28.69,20,14.35-20,28.69-20,14.35,20,28.69,20,14.35-20,28.69-20,14.35,20,28.7,20,14.35-20,28.7-20,14.35,20,28.7,20,14.35-20,28.7-20,14.35,20,28.7,20,14.35-20,28.7-20,14.35,20,28.7,20,14.35-20,28.7-20,14.35,20,28.69,20,14.35-20,28.7-20,14.35,20,28.7,20,14.35-20,28.7-20,14.35,20,28.7,20,14.35-20,28.7-20,14.35,20,28.7,20,14.35-20,28.7-20,14.35,20,28.7,20"/><path class="cls-1" d="M27.43,588.27c14.34,0,14.34,20,28.69,20s14.35-20,28.69-20,14.35,20,28.69,20,14.35-20,28.69-20,14.35,20,28.69,20,14.35-20,28.69-20,14.35,20,28.69,20,14.35-20,28.69-20,14.35,20,28.69,20,14.35-20,28.69-20,14.35,20,28.69,20,14.35-20,28.69-20,14.35,20,28.69,20,14.35-20,28.69-20,14.35,20,28.69,20,14.35-20,28.69-20,14.35,20,28.69,20,14.35-20,28.69-20,14.35,20,28.69,20,14.35-20,28.69-20,14.35,20,28.69,20,14.35-20,28.69-20,14.35,20,28.69,20,14.35-20,28.69-20,14.35,20,28.69,20,14.35-20,28.69-20,14.35,20,28.69,20,14.35-20,28.69-20,14.35,20,28.69,20,14.35-20,28.7-20,14.35,20,28.69,20,14.35-20,28.69-20,14.35,20,28.69,20,14.35-20,28.69-20,14.35,20,28.7,20,14.35-20,28.7-20,14.34,20,28.69,20,14.35-20,28.69-20,14.34,20,28.69,20,14.35-20,28.69-20,14.35,20,28.69,20,14.35-20,28.69-20,14.35,20,28.69,20,14.35-20,28.7-20,14.35,20,28.69,20,14.35-20,28.69-20,14.35,20,28.69,20,14.35-20,28.69-20,14.35,20,28.7,20,14.35-20,28.7-20,14.35,20,28.7,20,14.35-20,28.7-20,14.35,20,28.7,20,14.35-20,28.7-20,14.35,20,28.7,20,14.35-20,28.7-20,14.35,20,28.69,20,14.35-20,28.7-20,14.35,20,28.7,20,14.35-20,28.7-20,14.35,20,28.7,20,14.35-20,28.7-20,14.35,20,28.7,20,14.35-20,28.7-20,14.35,20,28.7,20"/><path class="cls-1" d="M27.43,616.48c14.34,0,14.34,20,28.69,20s14.35-20,28.69-20,14.35,20,28.69,20,14.35-20,28.69-20,14.35,20,28.69,20,14.35-20,28.69-20,14.35,20,28.69,20,14.35-20,28.69-20,14.35,20,28.69,20,14.35-20,28.69-20,14.35,20,28.69,20,14.35-20,28.69-20,14.35,20,28.69,20,14.35-20,28.69-20,14.35,20,28.69,20,14.35-20,28.69-20,14.35,20,28.69,20,14.35-20,28.69-20,14.35,20,28.69,20,14.35-20,28.69-20,14.35,20,28.69,20,14.35-20,28.69-20,14.35,20,28.69,20,14.35-20,28.69-20,14.35,20,28.69,20,14.35-20,28.69-20,14.35,20,28.69,20,14.35-20,28.69-20,14.35,20,28.69,20,14.35-20,28.7-20,14.35,20,28.69,20,14.35-20,28.69-20,14.35,20,28.69,20,14.35-20,28.69-20,14.35,20,28.7,20,14.35-20,28.7-20,14.34,20,28.69,20,14.35-20,28.69-20,14.34,20,28.69,20,14.35-20,28.69-20,14.35,20,28.69,20,14.35-20,28.69-20,14.35,20,28.69,20,14.35-20,28.7-20,14.35,20,28.69,20,14.35-20,28.69-20,14.35,20,28.69,20,14.35-20,28.69-20,14.35,20,28.7,20,14.35-20,28.7-20,14.35,20,28.7,20,14.35-20,28.7-20,14.35,20,28.7,20,14.35-20,28.7-20,14.35,20,28.7,20,14.35-20,28.7-20,14.35,20,28.69,20,14.35-20,28.7-20,14.35,20,28.7,20,14.35-20,28.7-20,14.35,20,28.7,20,14.35-20,28.7-20,14.35,20,28.7,20,14.35-20,28.7-20,14.35,20,28.7,20"/><path class="cls-1" d="M27.43,644.69c14.34,0,14.34,20,28.69,20s14.35-20,28.69-20,14.35,20,28.69,20,14.35-20,28.69-20,14.35,20,28.69,20,14.35-20,28.69-20,14.35,20,28.69,20,14.35-20,28.69-20,14.35,20,28.69,20,14.35-20,28.69-20,14.35,20,28.69,20,14.35-20,28.69-20,14.35,20,28.69,20,14.35-20,28.69-20,14.35,20,28.69,20,14.35-20,28.69-20,14.35,20,28.69,20,14.35-20,28.69-20,14.35,20,28.69,20,14.35-20,28.69-20,14.35,20,28.69,20,14.35-20,28.69-20,14.35,20,28.69,20,14.35-20,28.69-20,14.35,20,28.69,20,14.35-20,28.69-20,14.35,20,28.69,20,14.35-20,28.69-20,14.35,20,28.69,20,14.35-20,28.7-20,14.35,20,28.69,20,14.35-20,28.69-20,14.35,20,28.69,20,14.35-20,28.69-20,14.35,20,28.7,20,14.35-20,28.7-20,14.34,20,28.69,20,14.35-20,28.69-20,14.34,20,28.69,20,14.35-20,28.69-20,14.35,20,28.69,20,14.35-20,28.69-20,14.35,20,28.69,20,14.35-20,28.7-20,14.35,20,28.69,20,14.35-20,28.69-20,14.35,20,28.69,20,14.35-20,28.69-20,14.35,20,28.7,20,14.35-20,28.7-20,14.35,20,28.7,20,14.35-20,28.7-20,14.35,20,28.7,20,14.35-20,28.7-20,14.35,20,28.7,20,14.35-20,28.7-20,14.35,20,28.69,20,14.35-20,28.7-20,14.35,20,28.7,20,14.35-20,28.7-20,14.35,20,28.7,20,14.35-20,28.7-20,14.35,20,28.7,20,14.35-20,28.7-20,14.35,20,28.7,20"/><path class="cls-1" d="M27.43,672.91c14.34,0,14.34,20,28.69,20s14.35-20,28.69-20,14.35,20,28.69,20,14.35-20,28.69-20,14.35,20,28.69,20,14.35-20,28.69-20,14.35,20,28.69,20,14.35-20,28.69-20,14.35,20,28.69,20,14.35-20,28.69-20,14.35,20,28.69,20,14.35-20,28.69-20,14.35,20,28.69,20,14.35-20,28.69-20,14.35,20,28.69,20,14.35-20,28.69-20,14.35,20,28.69,20,14.35-20,28.69-20,14.35,20,28.69,20,14.35-20,28.69-20,14.35,20,28.69,20,14.35-20,28.69-20,14.35,20,28.69,20,14.35-20,28.69-20,14.35,20,28.69,20,14.35-20,28.69-20,14.35,20,28.69,20,14.35-20,28.69-20,14.35,20,28.69,20,14.35-20,28.7-20,14.35,20,28.69,20,14.35-20,28.69-20,14.35,20,28.69,20,14.35-20,28.69-20,14.35,20,28.7,20,14.35-20,28.7-20,14.34,20,28.69,20,14.35-20,28.69-20,14.34,20,28.69,20,14.35-20,28.69-20,14.35,20,28.69,20,14.35-20,28.69-20,14.35,20,28.69,20,14.35-20,28.7-20,14.35,20,28.69,20,14.35-20,28.69-20,14.35,20,28.69,20,14.35-20,28.69-20,14.35,20,28.7,20,14.35-20,28.7-20,14.35,20,28.7,20,14.35-20,28.7-20,14.35,20,28.7,20,14.35-20,28.7-20,14.35,20,28.7,20,14.35-20,28.7-20,14.35,20,28.69,20,14.35-20,28.7-20,14.35,20,28.7,20,14.35-20,28.7-20,14.35,20,28.7,20,14.35-20,28.7-20,14.35,20,28.7,20,14.35-20,28.7-20,14.35,20,28.7,20"/><path class="cls-1" d="M27.43,701.12c14.34,0,14.34,20,28.69,20s14.35-20,28.69-20,14.35,20,28.69,20,14.35-20,28.69-20,14.35,20,28.69,20,14.35-20,28.69-20,14.35,20,28.69,20,14.35-20,28.69-20,14.35,20,28.69,20,14.35-20,28.69-20,14.35,20,28.69,20,14.35-20,28.69-20,14.35,20,28.69,20,14.35-20,28.69-20,14.35,20,28.69,20,14.35-20,28.69-20,14.35,20,28.69,20,14.35-20,28.69-20,14.35,20,28.69,20,14.35-20,28.69-20,14.35,20,28.69,20,14.35-20,28.69-20,14.35,20,28.69,20,14.35-20,28.69-20,14.35,20,28.69,20,14.35-20,28.69-20,14.35,20,28.69,20,14.35-20,28.69-20,14.35,20,28.69,20,14.35-20,28.7-20,14.35,20,28.69,20,14.35-20,28.69-20,14.35,20,28.69,20,14.35-20,28.69-20,14.35,20,28.7,20,14.35-20,28.7-20,14.34,20,28.69,20,14.35-20,28.69-20,14.34,20,28.69,20,14.35-20,28.69-20,14.35,20,28.69,20,14.35-20,28.69-20,14.35,20,28.69,20,14.35-20,28.7-20,14.35,20,28.69,20,14.35-20,28.69-20,14.35,20,28.69,20,14.35-20,28.69-20,14.35,20,28.7,20,14.35-20,28.7-20,14.35,20,28.7,20,14.35-20,28.7-20,14.35,20,28.7,20,14.35-20,28.7-20,14.35,20,28.7,20,14.35-20,28.7-20,14.35,20,28.69,20,14.35-20,28.7-20,14.35,20,28.7,20,14.35-20,28.7-20,14.35,20,28.7,20,14.35-20,28.7-20,14.35,20,28.7,20,14.35-20,28.7-20,14.35,20,28.7,20"/><path class="cls-1" d="M27.43,729.34c14.34,0,14.34,20,28.69,20s14.35-20,28.69-20,14.35,20,28.69,20,14.35-20,28.69-20,14.35,20,28.69,20,14.35-20,28.69-20,14.35,20,28.69,20,14.35-20,28.69-20,14.35,20,28.69,20,14.35-20,28.69-20,14.35,20,28.69,20,14.35-20,28.69-20,14.35,20,28.69,20,14.35-20,28.69-20,14.35,20,28.69,20,14.35-20,28.69-20,14.35,20,28.69,20,14.35-20,28.69-20,14.35,20,28.69,20,14.35-20,28.69-20,14.35,20,28.69,20,14.35-20,28.69-20,14.35,20,28.69,20,14.35-20,28.69-20,14.35,20,28.69,20,14.35-20,28.69-20,14.35,20,28.69,20,14.35-20,28.69-20,14.35,20,28.69,20,14.35-20,28.7-20,14.35,20,28.69,20,14.35-20,28.69-20,14.35,20,28.69,20,14.35-20,28.69-20,14.35,20,28.7,20,14.35-20,28.7-20,14.34,20,28.69,20,14.35-20,28.69-20,14.34,20,28.69,20,14.35-20,28.69-20,14.35,20,28.69,20,14.35-20,28.69-20,14.35,20,28.69,20,14.35-20,28.7-20,14.35,20,28.69,20,14.35-20,28.69-20,14.35,20,28.69,20,14.35-20,28.69-20,14.35,20,28.7,20,14.35-20,28.7-20,14.35,20,28.7,20,14.35-20,28.7-20,14.35,20,28.7,20,14.35-20,28.7-20,14.35,20,28.7,20,14.35-20,28.7-20,14.35,20,28.69,20,14.35-20,28.7-20,14.35,20,28.7,20,14.35-20,28.7-20,14.35,20,28.7,20,14.35-20,28.7-20,14.35,20,28.7,20,14.35-20,28.7-20,14.35,20,28.7,20"/><path class="cls-1" d="M27.43,757.55c14.34,0,14.34,20,28.69,20s14.35-20,28.69-20,14.35,20,28.69,20,14.35-20,28.69-20,14.35,20,28.69,20,14.35-20,28.69-20,14.35,20,28.69,20,14.35-20,28.69-20,14.35,20,28.69,20,14.35-20,28.69-20,14.35,20,28.69,20,14.35-20,28.69-20,14.35,20,28.69,20,14.35-20,28.69-20,14.35,20,28.69,20,14.35-20,28.69-20,14.35,20,28.69,20,14.35-20,28.69-20,14.35,20,28.69,20,14.35-20,28.69-20,14.35,20,28.69,20,14.35-20,28.69-20,14.35,20,28.69,20,14.35-20,28.69-20,14.35,20,28.69,20,14.35-20,28.69-20,14.35,20,28.69,20,14.35-20,28.69-20,14.35,20,28.69,20,14.35-20,28.7-20,14.35,20,28.69,20,14.35-20,28.69-20,14.35,20,28.69,20,14.35-20,28.69-20,14.35,20,28.7,20,14.35-20,28.7-20,14.34,20,28.69,20,14.35-20,28.69-20,14.34,20,28.69,20,14.35-20,28.69-20,14.35,20,28.69,20,14.35-20,28.69-20,14.35,20,28.69,20,14.35-20,28.7-20,14.35,20,28.69,20,14.35-20,28.69-20,14.35,20,28.69,20,14.35-20,28.69-20,14.35,20,28.7,20,14.35-20,28.7-20,14.35,20,28.7,20,14.35-20,28.7-20,14.35,20,28.7,20,14.35-20,28.7-20,14.35,20,28.7,20,14.35-20,28.7-20,14.35,20,28.69,20,14.35-20,28.7-20,14.35,20,28.7,20,14.35-20,28.7-20,14.35,20,28.7,20,14.35-20,28.7-20,14.35,20,28.7,20,14.35-20,28.7-20,14.35,20,28.7,20"/><path class="cls-1" d="M27.43,785.76c14.34,0,14.34,20,28.69,20s14.35-20,28.69-20,14.35,20,28.69,20,14.35-20,28.69-20,14.35,20,28.69,20,14.35-20,28.69-20,14.35,20,28.69,20,14.35-20,28.69-20,14.35,20,28.69,20,14.35-20,28.69-20,14.35,20,28.69,20,14.35-20,28.69-20,14.35,20,28.69,20,14.35-20,28.69-20,14.35,20,28.69,20,14.35-20,28.69-20,14.35,20,28.69,20,14.35-20,28.69-20,14.35,20,28.69,20,14.35-20,28.69-20,14.35,20,28.69,20,14.35-20,28.69-20,14.35,20,28.69,20,14.35-20,28.69-20,14.35,20,28.69,20,14.35-20,28.69-20,14.35,20,28.69,20,14.35-20,28.69-20,14.35,20,28.69,20,14.35-20,28.7-20,14.35,20,28.69,20,14.35-20,28.69-20,14.35,20,28.69,20,14.35-20,28.69-20,14.35,20,28.7,20,14.35-20,28.7-20,14.34,20,28.69,20,14.35-20,28.69-20,14.34,20,28.69,20,14.35-20,28.69-20,14.35,20,28.69,20,14.35-20,28.69-20,14.35,20,28.69,20,14.35-20,28.7-20,14.35,20,28.69,20,14.35-20,28.69-20,14.35,20,28.69,20,14.35-20,28.69-20,14.35,20,28.7,20,14.35-20,28.7-20,14.35,20,28.7,20,14.35-20,28.7-20,14.35,20,28.7,20,14.35-20,28.7-20,14.35,20,28.7,20,14.35-20,28.7-20,14.35,20,28.69,20,14.35-20,28.7-20,14.35,20,28.7,20,14.35-20,28.7-20,14.35,20,28.7,20,14.35-20,28.7-20,14.35,20,28.7,20,14.35-20,28.7-20,14.35,20,28.7,20"/><path class="cls-1" d="M27.43,813.98c14.34,0,14.34,20,28.69,20s14.35-20,28.69-20,14.35,20,28.69,20,14.35-20,28.69-20,14.35,20,28.69,20,14.35-20,28.69-20,14.35,20,28.69,20,14.35-20,28.69-20,14.35,20,28.69,20,14.35-20,28.69-20,14.35,20,28.69,20,14.35-20,28.69-20,14.35,20,28.69,20,14.35-20,28.69-20,14.35,20,28.69,20,14.35-20,28.69-20,14.35,20,28.69,20,14.35-20,28.69-20,14.35,20,28.69,20,14.35-20,28.69-20,14.35,20,28.69,20,14.35-20,28.69-20,14.35,20,28.69,20,14.35-20,28.69-20,14.35,20,28.69,20,14.35-20,28.69-20,14.35,20,28.69,20,14.35-20,28.69-20,14.35,20,28.69,20,14.35-20,28.7-20,14.35,20,28.69,20,14.35-20,28.69-20,14.35,20,28.69,20,14.35-20,28.69-20,14.35,20,28.7,20,14.35-20,28.7-20,14.34,20,28.69,20,14.35-20,28.69-20,14.34,20,28.69,20,14.35-20,28.69-20,14.35,20,28.69,20,14.35-20,28.69-20,14.35,20,28.69,20,14.35-20,28.7-20,14.35,20,28.69,20,14.35-20,28.69-20,14.35,20,28.69,20,14.35-20,28.69-20,14.35,20,28.7,20,14.35-20,28.7-20,14.35,20,28.7,20,14.35-20,28.7-20,14.35,20,28.7,20,14.35-20,28.7-20,14.35,20,28.7,20,14.35-20,28.7-20,14.35,20,28.69,20,14.35-20,28.7-20,14.35,20,28.7,20,14.35-20,28.7-20,14.35,20,28.7,20,14.35-20,28.7-20,14.35,20,28.7,20,14.35-20,28.7-20,14.35,20,28.7,20"/><path class="cls-1" d="M27.43,842.19c14.34,0,14.34,20,28.69,20s14.35-20,28.69-20,14.35,20,28.69,20,14.35-20,28.69-20,14.35,20,28.69,20,14.35-20,28.69-20,14.35,20,28.69,20,14.35-20,28.69-20,14.35,20,28.69,20,14.35-20,28.69-20,14.35,20,28.69,20,14.35-20,28.69-20,14.35,20,28.69,20,14.35-20,28.69-20,14.35,20,28.69,20,14.35-20,28.69-20,14.35,20,28.69,20,14.35-20,28.69-20,14.35,20,28.69,20,14.35-20,28.69-20,14.35,20,28.69,20,14.35-20,28.69-20,14.35,20,28.69,20,14.35-20,28.69-20,14.35,20,28.69,20,14.35-20,28.69-20,14.35,20,28.69,20,14.35-20,28.69-20,14.35,20,28.69,20,14.35-20,28.7-20,14.35,20,28.69,20,14.35-20,28.69-20,14.35,20,28.69,20,14.35-20,28.69-20,14.35,20,28.7,20,14.35-20,28.7-20,14.34,20,28.69,20,14.35-20,28.69-20,14.34,20,28.69,20,14.35-20,28.69-20,14.35,20,28.69,20,14.35-20,28.69-20,14.35,20,28.69,20,14.35-20,28.7-20,14.35,20,28.69,20,14.35-20,28.69-20,14.35,20,28.69,20,14.35-20,28.69-20,14.35,20,28.7,20,14.35-20,28.7-20,14.35,20,28.7,20,14.35-20,28.7-20,14.35,20,28.7,20,14.35-20,28.7-20,14.35,20,28.7,20,14.35-20,28.7-20,14.35,20,28.69,20,14.35-20,28.7-20,14.35,20,28.7,20,14.35-20,28.7-20,14.35,20,28.7,20,14.35-20,28.7-20,14.35,20,28.7,20,14.35-20,28.7-20,14.35,20,28.7,20"/><path class="cls-1" d="M27.43,870.41c14.34,0,14.34,20,28.69,20s14.35-20,28.69-20,14.35,20,28.69,20,14.35-20,28.69-20,14.35,20,28.69,20,14.35-20,28.69-20,14.35,20,28.69,20,14.35-20,28.69-20,14.35,20,28.69,20,14.35-20,28.69-20,14.35,20,28.69,20,14.35-20,28.69-20,14.35,20,28.69,20,14.35-20,28.69-20,14.35,20,28.69,20,14.35-20,28.69-20,14.35,20,28.69,20,14.35-20,28.69-20,14.35,20,28.69,20,14.35-20,28.69-20,14.35,20,28.69,20,14.35-20,28.69-20,14.35,20,28.69,20,14.35-20,28.69-20,14.35,20,28.69,20,14.35-20,28.69-20,14.35,20,28.69,20,14.35-20,28.69-20,14.35,20,28.69,20,14.35-20,28.7-20,14.35,20,28.69,20,14.35-20,28.69-20,14.35,20,28.69,20,14.35-20,28.69-20,14.35,20,28.7,20,14.35-20,28.7-20,14.34,20,28.69,20,14.35-20,28.69-20,14.34,20,28.69,20,14.35-20,28.69-20,14.35,20,28.69,20,14.35-20,28.69-20,14.35,20,28.69,20,14.35-20,28.7-20,14.35,20,28.69,20,14.35-20,28.69-20,14.35,20,28.69,20,14.35-20,28.69-20,14.35,20,28.7,20,14.35-20,28.7-20,14.35,20,28.7,20,14.35-20,28.7-20,14.35,20,28.7,20,14.35-20,28.7-20,14.35,20,28.7,20,14.35-20,28.7-20,14.35,20,28.69,20,14.35-20,28.7-20,14.35,20,28.7,20,14.35-20,28.7-20,14.35,20,28.7,20,14.35-20,28.7-20,14.35,20,28.7,20,14.35-20,28.7-20,14.35,20,28.7,20"/><path class="cls-1" d="M27.43,898.62c14.34,0,14.34,20,28.69,20s14.35-20,28.69-20,14.35,20,28.69,20,14.35-20,28.69-20,14.35,20,28.69,20,14.35-20,28.69-20,14.35,20,28.69,20,14.35-20,28.69-20,14.35,20,28.69,20,14.35-20,28.69-20,14.35,20,28.69,20,14.35-20,28.69-20,14.35,20,28.69,20,14.35-20,28.69-20,14.35,20,28.69,20,14.35-20,28.69-20,14.35,20,28.69,20,14.35-20,28.69-20,14.35,20,28.69,20,14.35-20,28.69-20,14.35,20,28.69,20,14.35-20,28.69-20,14.35,20,28.69,20,14.35-20,28.69-20,14.35,20,28.69,20,14.35-20,28.69-20,14.35,20,28.69,20,14.35-20,28.69-20,14.35,20,28.69,20,14.35-20,28.7-20,14.35,20,28.69,20,14.35-20,28.69-20,14.35,20,28.69,20,14.35-20,28.69-20,14.35,20,28.7,20,14.35-20,28.7-20,14.34,20,28.69,20,14.35-20,28.69-20,14.34,20,28.69,20,14.35-20,28.69-20,14.35,20,28.69,20,14.35-20,28.69-20,14.35,20,28.69,20,14.35-20,28.7-20,14.35,20,28.69,20,14.35-20,28.69-20,14.35,20,28.69,20,14.35-20,28.69-20,14.35,20,28.7,20,14.35-20,28.7-20,14.35,20,28.7,20,14.35-20,28.7-20,14.35,20,28.7,20,14.35-20,28.7-20,14.35,20,28.7,20,14.35-20,28.7-20,14.35,20,28.69,20,14.35-20,28.7-20,14.35,20,28.7,20,14.35-20,28.7-20,14.35,20,28.7,20,14.35-20,28.7-20,14.35,20,28.7,20,14.35-20,28.7-20,14.35,20,28.7,20"/><path class="cls-1" d="M27.43,926.84c14.34,0,14.34,20,28.69,20s14.35-20,28.69-20,14.35,20,28.69,20,14.35-20,28.69-20,14.35,20,28.69,20,14.35-20,28.69-20,14.35,20,28.69,20,14.35-20,28.69-20,14.35,20,28.69,20,14.35-20,28.69-20,14.35,20,28.69,20,14.35-20,28.69-20,14.35,20,28.69,20,14.35-20,28.69-20,14.35,20,28.69,20,14.35-20,28.69-20,14.35,20,28.69,20,14.35-20,28.69-20,14.35,20,28.69,20,14.35-20,28.69-20,14.35,20,28.69,20,14.35-20,28.69-20,14.35,20,28.69,20,14.35-20,28.69-20,14.35,20,28.69,20,14.35-20,28.69-20,14.35,20,28.69,20,14.35-20,28.69-20,14.35,20,28.69,20,14.35-20,28.7-20,14.35,20,28.69,20,14.35-20,28.69-20,14.35,20,28.69,20,14.35-20,28.69-20,14.35,20,28.7,20,14.35-20,28.7-20,14.34,20,28.69,20,14.35-20,28.69-20,14.34,20,28.69,20,14.35-20,28.69-20,14.35,20,28.69,20,14.35-20,28.69-20,14.35,20,28.69,20,14.35-20,28.7-20,14.35,20,28.69,20,14.35-20,28.69-20,14.35,20,28.69,20,14.35-20,28.69-20,14.35,20,28.7,20,14.35-20,28.7-20,14.35,20,28.7,20,14.35-20,28.7-20,14.35,20,28.7,20,14.35-20,28.7-20,14.35,20,28.7,20,14.35-20,28.7-20,14.35,20,28.69,20,14.35-20,28.7-20,14.35,20,28.7,20,14.35-20,28.7-20,14.35,20,28.7,20,14.35-20,28.7-20,14.35,20,28.7,20,14.35-20,28.7-20,14.35,20,28.7,20"/><path class="cls-1" d="M27.43,955.05c14.34,0,14.34,20,28.69,20s14.35-20,28.69-20,14.35,20,28.69,20,14.35-20,28.69-20,14.35,20,28.69,20,14.35-20,28.69-20,14.35,20,28.69,20,14.35-20,28.69-20,14.35,20,28.69,20,14.35-20,28.69-20,14.35,20,28.69,20,14.35-20,28.69-20,14.35,20,28.69,20,14.35-20,28.69-20,14.35,20,28.69,20,14.35-20,28.69-20,14.35,20,28.69,20,14.35-20,28.69-20,14.35,20,28.69,20,14.35-20,28.69-20,14.35,20,28.69,20,14.35-20,28.69-20,14.35,20,28.69,20,14.35-20,28.69-20,14.35,20,28.69,20,14.35-20,28.69-20,14.35,20,28.69,20,14.35-20,28.69-20,14.35,20,28.69,20,14.35-20,28.7-20,14.35,20,28.69,20,14.35-20,28.69-20,14.35,20,28.69,20,14.35-20,28.69-20,14.35,20,28.7,20,14.35-20,28.7-20,14.34,20,28.69,20,14.35-20,28.69-20,14.34,20,28.69,20,14.35-20,28.69-20,14.35,20,28.69,20,14.35-20,28.69-20,14.35,20,28.69,20,14.35-20,28.7-20,14.35,20,28.69,20,14.35-20,28.69-20,14.35,20,28.69,20,14.35-20,28.69-20,14.35,20,28.7,20,14.35-20,28.7-20,14.35,20,28.7,20,14.35-20,28.7-20,14.35,20,28.7,20,14.35-20,28.7-20,14.35,20,28.7,20,14.35-20,28.7-20,14.35,20,28.69,20,14.35-20,28.7-20,14.35,20,28.7,20,14.35-20,28.7-20,14.35,20,28.7,20,14.35-20,28.7-20,14.35,20,28.7,20,14.35-20,28.7-20,14.35,20,28.7,20"/><path class="cls-1" d="M27.43,983.26c14.34,0,14.34,20,28.69,20s14.35-20,28.69-20,14.35,20,28.69,20,14.35-20,28.69-20,14.35,20,28.69,20,14.35-20,28.69-20,14.35,20,28.69,20,14.35-20,28.69-20,14.35,20,28.69,20,14.35-20,28.69-20,14.35,20,28.69,20,14.35-20,28.69-20,14.35,20,28.69,20,14.35-20,28.69-20,14.35,20,28.69,20,14.35-20,28.69-20,14.35,20,28.69,20,14.35-20,28.69-20,14.35,20,28.69,20,14.35-20,28.69-20,14.35,20,28.69,20,14.35-20,28.69-20,14.35,20,28.69,20,14.35-20,28.69-20,14.35,20,28.69,20,14.35-20,28.69-20,14.35,20,28.69,20,14.35-20,28.69-20,14.35,20,28.69,20,14.35-20,28.7-20,14.35,20,28.69,20,14.35-20,28.69-20,14.35,20,28.69,20,14.35-20,28.69-20,14.35,20,28.7,20,14.35-20,28.7-20,14.34,20,28.69,20,14.35-20,28.69-20,14.34,20,28.69,20,14.35-20,28.69-20,14.35,20,28.69,20,14.35-20,28.69-20,14.35,20,28.69,20,14.35-20,28.7-20,14.35,20,28.69,20,14.35-20,28.69-20,14.35,20,28.69,20,14.35-20,28.69-20,14.35,20,28.7,20,14.35-20,28.7-20,14.35,20,28.7,20,14.35-20,28.7-20,14.35,20,28.7,20,14.35-20,28.7-20,14.35,20,28.7,20,14.35-20,28.7-20,14.35,20,28.69,20,14.35-20,28.7-20,14.35,20,28.7,20,14.35-20,28.7-20,14.35,20,28.7,20,14.35-20,28.7-20,14.35,20,28.7,20,14.35-20,28.7-20,14.35,20,28.7,20"/><path class="cls-1" d="M27.43,1011.48c14.34,0,14.34,20,28.69,20s14.35-20,28.69-20,14.35,20,28.69,20,14.35-20,28.69-20,14.35,20,28.69,20,14.35-20,28.69-20,14.35,20,28.69,20,14.35-20,28.69-20,14.35,20,28.69,20,14.35-20,28.69-20,14.35,20,28.69,20,14.35-20,28.69-20,14.35,20,28.69,20,14.35-20,28.69-20,14.35,20,28.69,20,14.35-20,28.69-20,14.35,20,28.69,20,14.35-20,28.69-20,14.35,20,28.69,20,14.35-20,28.69-20,14.35,20,28.69,20,14.35-20,28.69-20,14.35,20,28.69,20,14.35-20,28.69-20,14.35,20,28.69,20,14.35-20,28.69-20,14.35,20,28.69,20,14.35-20,28.69-20,14.35,20,28.69,20,14.35-20,28.7-20,14.35,20,28.69,20,14.35-20,28.69-20,14.35,20,28.69,20,14.35-20,28.69-20,14.35,20,28.7,20,14.35-20,28.7-20,14.34,20,28.69,20,14.35-20,28.69-20,14.34,20,28.69,20,14.35-20,28.69-20,14.35,20,28.69,20,14.35-20,28.69-20,14.35,20,28.69,20,14.35-20,28.7-20,14.35,20,28.69,20,14.35-20,28.69-20,14.35,20,28.69,20,14.35-20,28.69-20,14.35,20,28.7,20,14.35-20,28.7-20,14.35,20,28.7,20,14.35-20,28.7-20,14.35,20,28.7,20,14.35-20,28.7-20,14.35,20,28.7,20,14.35-20,28.7-20,14.35,20,28.69,20,14.35-20,28.7-20,14.35,20,28.7,20,14.35-20,28.7-20,14.35,20,28.7,20,14.35-20,28.7-20,14.35,20,28.7,20,14.35-20,28.7-20,14.35,20,28.7,20"/><path class="cls-1" d="M27.43,1039.69c14.34,0,14.34,20,28.69,20s14.35-20,28.69-20,14.35,20,28.69,20,14.35-20,28.69-20,14.35,20,28.69,20,14.35-20,28.69-20,14.35,20,28.69,20,14.35-20,28.69-20,14.35,20,28.69,20,14.35-20,28.69-20,14.35,20,28.69,20,14.35-20,28.69-20,14.35,20,28.69,20,14.35-20,28.69-20,14.35,20,28.69,20,14.35-20,28.69-20,14.35,20,28.69,20,14.35-20,28.69-20,14.35,20,28.69,20,14.35-20,28.69-20,14.35,20,28.69,20,14.35-20,28.69-20,14.35,20,28.69,20,14.35-20,28.69-20,14.35,20,28.69,20,14.35-20,28.69-20,14.35,20,28.69,20,14.35-20,28.69-20,14.35,20,28.69,20,14.35-20,28.7-20,14.35,20,28.69,20,14.35-20,28.69-20,14.35,20,28.69,20,14.35-20,28.69-20,14.35,20,28.7,20,14.35-20,28.7-20,14.34,20,28.69,20,14.35-20,28.69-20,14.34,20,28.69,20,14.35-20,28.69-20,14.35,20,28.69,20,14.35-20,28.69-20,14.35,20,28.69,20,14.35-20,28.7-20,14.35,20,28.69,20,14.35-20,28.69-20,14.35,20,28.69,20,14.35-20,28.69-20,14.35,20,28.7,20,14.35-20,28.7-20,14.35,20,28.7,20,14.35-20,28.7-20,14.35,20,28.7,20,14.35-20,28.7-20,14.35,20,28.7,20,14.35-20,28.7-20,14.35,20,28.69,20,14.35-20,28.7-20,14.35,20,28.7,20,14.35-20,28.7-20,14.35,20,28.7,20,14.35-20,28.7-20,14.35,20,28.7,20,14.35-20,28.7-20,14.35,20,28.7,20"/><path class="cls-1" d="M27.43,1067.91c14.34,0,14.34,20,28.69,20s14.35-20,28.69-20,14.35,20,28.69,20,14.35-20,28.69-20,14.35,20,28.69,20,14.35-20,28.69-20,14.35,20,28.69,20,14.35-20,28.69-20,14.35,20,28.69,20,14.35-20,28.69-20,14.35,20,28.69,20,14.35-20,28.69-20,14.35,20,28.69,20,14.35-20,28.69-20,14.35,20,28.69,20,14.35-20,28.69-20,14.35,20,28.69,20,14.35-20,28.69-20,14.35,20,28.69,20,14.35-20,28.69-20,14.35,20,28.69,20,14.35-20,28.69-20,14.35,20,28.69,20,14.35-20,28.69-20,14.35,20,28.69,20,14.35-20,28.69-20,14.35,20,28.69,20,14.35-20,28.69-20,14.35,20,28.69,20,14.35-20,28.7-20,14.35,20,28.69,20,14.35-20,28.69-20,14.35,20,28.69,20,14.35-20,28.69-20,14.35,20,28.7,20,14.35-20,28.7-20,14.34,20,28.69,20,14.35-20,28.69-20,14.34,20,28.69,20,14.35-20,28.69-20,14.35,20,28.69,20,14.35-20,28.69-20,14.35,20,28.69,20,14.35-20,28.7-20,14.35,20,28.69,20,14.35-20,28.69-20,14.35,20,28.69,20,14.35-20,28.69-20,14.35,20,28.7,20,14.35-20,28.7-20,14.35,20,28.7,20,14.35-20,28.7-20,14.35,20,28.7,20,14.35-20,28.7-20,14.35,20,28.7,20,14.35-20,28.7-20,14.35,20,28.69,20,14.35-20,28.7-20,14.35,20,28.7,20,14.35-20,28.7-20,14.35,20,28.7,20,14.35-20,28.7-20,14.35,20,28.7,20,14.35-20,28.7-20,14.35,20,28.7,20"/><path class="cls-1" d="M27.43,1096.12c14.34,0,14.34,20,28.69,20s14.35-20,28.69-20,14.35,20,28.69,20,14.35-20,28.69-20,14.35,20,28.69,20,14.35-20,28.69-20,14.35,20,28.69,20,14.35-20,28.69-20,14.35,20,28.69,20,14.35-20,28.69-20,14.35,20,28.69,20,14.35-20,28.69-20,14.35,20,28.69,20,14.35-20,28.69-20,14.35,20,28.69,20,14.35-20,28.69-20,14.35,20,28.69,20,14.35-20,28.69-20,14.35,20,28.69,20,14.35-20,28.69-20,14.35,20,28.69,20,14.35-20,28.69-20,14.35,20,28.69,20,14.35-20,28.69-20,14.35,20,28.69,20,14.35-20,28.69-20,14.35,20,28.69,20,14.35-20,28.69-20,14.35,20,28.69,20,14.35-20,28.7-20,14.35,20,28.69,20,14.35-20,28.69-20,14.35,20,28.69,20,14.35-20,28.69-20,14.35,20,28.7,20,14.35-20,28.7-20,14.34,20,28.69,20,14.35-20,28.69-20,14.34,20,28.69,20,14.35-20,28.69-20,14.35,20,28.69,20,14.35-20,28.69-20,14.35,20,28.69,20,14.35-20,28.7-20,14.35,20,28.69,20,14.35-20,28.69-20,14.35,20,28.69,20,14.35-20,28.69-20,14.35,20,28.7,20,14.35-20,28.7-20,14.35,20,28.7,20,14.35-20,28.7-20,14.35,20,28.7,20,14.35-20,28.7-20,14.35,20,28.7,20,14.35-20,28.7-20,14.35,20,28.69,20,14.35-20,28.7-20,14.35,20,28.7,20,14.35-20,28.7-20,14.35,20,28.7,20,14.35-20,28.7-20,14.35,20,28.7,20,14.35-20,28.7-20,14.35,20,28.7,20"/><path class="cls-1" d="M27.43,1124.33c14.34,0,14.34,20,28.69,20s14.35-20,28.69-20,14.35,20,28.69,20,14.35-20,28.69-20,14.35,20,28.69,20,14.35-20,28.69-20,14.35,20,28.69,20,14.35-20,28.69-20,14.35,20,28.69,20,14.35-20,28.69-20,14.35,20,28.69,20,14.35-20,28.69-20,14.35,20,28.69,20,14.35-20,28.69-20,14.35,20,28.69,20,14.35-20,28.69-20,14.35,20,28.69,20,14.35-20,28.69-20,14.35,20,28.69,20,14.35-20,28.69-20,14.35,20,28.69,20,14.35-20,28.69-20,14.35,20,28.69,20,14.35-20,28.69-20,14.35,20,28.69,20,14.35-20,28.69-20,14.35,20,28.69,20,14.35-20,28.69-20,14.35,20,28.69,20,14.35-20,28.7-20,14.35,20,28.69,20,14.35-20,28.69-20,14.35,20,28.69,20,14.35-20,28.69-20,14.35,20,28.7,20,14.35-20,28.7-20,14.34,20,28.69,20,14.35-20,28.69-20,14.34,20,28.69,20,14.35-20,28.69-20,14.35,20,28.69,20,14.35-20,28.69-20,14.35,20,28.69,20,14.35-20,28.7-20,14.35,20,28.69,20,14.35-20,28.69-20,14.35,20,28.69,20,14.35-20,28.69-20,14.35,20,28.7,20,14.35-20,28.7-20,14.35,20,28.7,20,14.35-20,28.7-20,14.35,20,28.7,20,14.35-20,28.7-20,14.35,20,28.7,20,14.35-20,28.7-20,14.35,20,28.69,20,14.35-20,28.7-20,14.35,20,28.7,20,14.35-20,28.7-20,14.35,20,28.7,20,14.35-20,28.7-20,14.35,20,28.7,20,14.35-20,28.7-20,14.35,20,28.7,20"/><path class="cls-1" d="M27.43,1152.55c14.34,0,14.34,20,28.69,20s14.35-20,28.69-20,14.35,20,28.69,20,14.35-20,28.69-20,14.35,20,28.69,20,14.35-20,28.69-20,14.35,20,28.69,20,14.35-20,28.69-20,14.35,20,28.69,20,14.35-20,28.69-20,14.35,20,28.69,20,14.35-20,28.69-20,14.35,20,28.69,20,14.35-20,28.69-20,14.35,20,28.69,20,14.35-20,28.69-20,14.35,20,28.69,20,14.35-20,28.69-20,14.35,20,28.69,20,14.35-20,28.69-20,14.35,20,28.69,20,14.35-20,28.69-20,14.35,20,28.69,20,14.35-20,28.69-20,14.35,20,28.69,20,14.35-20,28.69-20,14.35,20,28.69,20,14.35-20,28.69-20,14.35,20,28.69,20,14.35-20,28.7-20,14.35,20,28.69,20,14.35-20,28.69-20,14.35,20,28.69,20,14.35-20,28.69-20,14.35,20,28.7,20,14.35-20,28.7-20,14.34,20,28.69,20,14.35-20,28.69-20,14.34,20,28.69,20,14.35-20,28.69-20,14.35,20,28.69,20,14.35-20,28.69-20,14.35,20,28.69,20,14.35-20,28.7-20,14.35,20,28.69,20,14.35-20,28.69-20,14.35,20,28.69,20,14.35-20,28.69-20,14.35,20,28.7,20,14.35-20,28.7-20,14.35,20,28.7,20,14.35-20,28.7-20,14.35,20,28.7,20,14.35-20,28.7-20,14.35,20,28.7,20,14.35-20,28.7-20,14.35,20,28.69,20,14.35-20,28.7-20,14.35,20,28.7,20,14.35-20,28.7-20,14.35,20,28.7,20,14.35-20,28.7-20,14.35,20,28.7,20,14.35-20,28.7-20,14.35,20,28.7,20"/><path class="cls-1" d="M27.43,1180.76c14.34,0,14.34,20,28.69,20s14.35-20,28.69-20,14.35,20,28.69,20,14.35-20,28.69-20,14.35,20,28.69,20,14.35-20,28.69-20,14.35,20,28.69,20,14.35-20,28.69-20,14.35,20,28.69,20,14.35-20,28.69-20,14.35,20,28.69,20,14.35-20,28.69-20,14.35,20,28.69,20,14.35-20,28.69-20,14.35,20,28.69,20,14.35-20,28.69-20,14.35,20,28.69,20,14.35-20,28.69-20,14.35,20,28.69,20,14.35-20,28.69-20,14.35,20,28.69,20,14.35-20,28.69-20,14.35,20,28.69,20,14.35-20,28.69-20,14.35,20,28.69,20,14.35-20,28.69-20,14.35,20,28.69,20,14.35-20,28.69-20,14.35,20,28.69,20,14.35-20,28.7-20,14.35,20,28.69,20,14.35-20,28.69-20,14.35,20,28.69,20,14.35-20,28.69-20,14.35,20,28.7,20,14.35-20,28.7-20,14.34,20,28.69,20,14.35-20,28.69-20,14.34,20,28.69,20,14.35-20,28.69-20,14.35,20,28.69,20,14.35-20,28.69-20,14.35,20,28.69,20,14.35-20,28.7-20,14.35,20,28.69,20,14.35-20,28.69-20,14.35,20,28.69,20,14.35-20,28.69-20,14.35,20,28.7,20,14.35-20,28.7-20,14.35,20,28.7,20,14.35-20,28.7-20,14.35,20,28.7,20,14.35-20,28.7-20,14.35,20,28.7,20,14.35-20,28.7-20,14.35,20,28.69,20,14.35-20,28.7-20,14.35,20,28.7,20,14.35-20,28.7-20,14.35,20,28.7,20,14.35-20,28.7-20,14.35,20,28.7,20,14.35-20,28.7-20,14.35,20,28.7,20"/><path class="cls-1" d="M27.43,1208.98c14.34,0,14.34,20,28.69,20s14.35-20,28.69-20,14.35,20,28.69,20,14.35-20,28.69-20,14.35,20,28.69,20,14.35-20,28.69-20,14.35,20,28.69,20,14.35-20,28.69-20,14.35,20,28.69,20,14.35-20,28.69-20,14.35,20,28.69,20,14.35-20,28.69-20,14.35,20,28.69,20,14.35-20,28.69-20,14.35,20,28.69,20,14.35-20,28.69-20,14.35,20,28.69,20,14.35-20,28.69-20,14.35,20,28.69,20,14.35-20,28.69-20,14.35,20,28.69,20,14.35-20,28.69-20,14.35,20,28.69,20,14.35-20,28.69-20,14.35,20,28.69,20,14.35-20,28.69-20,14.35,20,28.69,20,14.35-20,28.69-20,14.35,20,28.69,20,14.35-20,28.7-20,14.35,20,28.69,20,14.35-20,28.69-20,14.35,20,28.69,20,14.35-20,28.69-20,14.35,20,28.7,20,14.35-20,28.7-20,14.34,20,28.69,20,14.35-20,28.69-20,14.34,20,28.69,20,14.35-20,28.69-20,14.35,20,28.69,20,14.35-20,28.69-20,14.35,20,28.69,20,14.35-20,28.7-20,14.35,20,28.69,20,14.35-20,28.69-20,14.35,20,28.69,20,14.35-20,28.69-20,14.35,20,28.7,20,14.35-20,28.7-20,14.35,20,28.7,20,14.35-20,28.7-20,14.35,20,28.7,20,14.35-20,28.7-20,14.35,20,28.7,20,14.35-20,28.7-20,14.35,20,28.69,20,14.35-20,28.7-20,14.35,20,28.7,20,14.35-20,28.7-20,14.35,20,28.7,20,14.35-20,28.7-20,14.35,20,28.7,20,14.35-20,28.7-20,14.35,20,28.7,20"/><path class="cls-1" d="M27.43,1237.19c14.34,0,14.34,20,28.69,20s14.35-20,28.69-20,14.35,20,28.69,20,14.35-20,28.69-20,14.35,20,28.69,20,14.35-20,28.69-20,14.35,20,28.69,20,14.35-20,28.69-20,14.35,20,28.69,20,14.35-20,28.69-20,14.35,20,28.69,20,14.35-20,28.69-20,14.35,20,28.69,20,14.35-20,28.69-20,14.35,20,28.69,20,14.35-20,28.69-20,14.35,20,28.69,20,14.35-20,28.69-20,14.35,20,28.69,20,14.35-20,28.69-20,14.35,20,28.69,20,14.35-20,28.69-20,14.35,20,28.69,20,14.35-20,28.69-20,14.35,20,28.69,20,14.35-20,28.69-20,14.35,20,28.69,20,14.35-20,28.69-20,14.35,20,28.69,20,14.35-20,28.7-20,14.35,20,28.69,20,14.35-20,28.69-20,14.35,20,28.69,20,14.35-20,28.69-20,14.35,20,28.7,20,14.35-20,28.7-20,14.34,20,28.69,20,14.35-20,28.69-20,14.34,20,28.69,20,14.35-20,28.69-20,14.35,20,28.69,20,14.35-20,28.69-20,14.35,20,28.69,20,14.35-20,28.7-20,14.35,20,28.69,20,14.35-20,28.69-20,14.35,20,28.69,20,14.35-20,28.69-20,14.35,20,28.7,20,14.35-20,28.7-20,14.35,20,28.7,20,14.35-20,28.7-20,14.35,20,28.7,20,14.35-20,28.7-20,14.35,20,28.7,20,14.35-20,28.7-20,14.35,20,28.69,20,14.35-20,28.7-20,14.35,20,28.7,20,14.35-20,28.7-20,14.35,20,28.7,20,14.35-20,28.7-20,14.35,20,28.7,20,14.35-20,28.7-20,14.35,20,28.7,20"/><path class="cls-1" d="M27.43,1265.4c14.34,0,14.34,20,28.69,20s14.35-20,28.69-20,14.35,20,28.69,20,14.35-20,28.69-20,14.35,20,28.69,20,14.35-20,28.69-20,14.35,20,28.69,20,14.35-20,28.69-20,14.35,20,28.69,20,14.35-20,28.69-20,14.35,20,28.69,20,14.35-20,28.69-20,14.35,20,28.69,20,14.35-20,28.69-20,14.35,20,28.69,20,14.35-20,28.69-20,14.35,20,28.69,20,14.35-20,28.69-20,14.35,20,28.69,20,14.35-20,28.69-20,14.35,20,28.69,20,14.35-20,28.69-20,14.35,20,28.69,20,14.35-20,28.69-20,14.35,20,28.69,20,14.35-20,28.69-20,14.35,20,28.69,20,14.35-20,28.69-20,14.35,20,28.69,20,14.35-20,28.7-20,14.35,20,28.69,20,14.35-20,28.69-20,14.35,20,28.69,20,14.35-20,28.69-20,14.35,20,28.7,20,14.35-20,28.7-20,14.34,20,28.69,20,14.35-20,28.69-20,14.34,20,28.69,20,14.35-20,28.69-20,14.35,20,28.69,20,14.35-20,28.69-20,14.35,20,28.69,20,14.35-20,28.7-20,14.35,20,28.69,20,14.35-20,28.69-20,14.35,20,28.69,20,14.35-20,28.69-20,14.35,20,28.7,20,14.35-20,28.7-20,14.35,20,28.7,20,14.35-20,28.7-20,14.35,20,28.7,20,14.35-20,28.7-20,14.35,20,28.7,20,14.35-20,28.7-20,14.35,20,28.69,20,14.35-20,28.7-20,14.35,20,28.7,20,14.35-20,28.7-20,14.35,20,28.7,20,14.35-20,28.7-20,14.35,20,28.7,20,14.35-20,28.7-20,14.35,20,28.7,20"/><path class="cls-1" d="M27.43,1293.62c14.34,0,14.34,20,28.69,20s14.35-20,28.69-20,14.35,20,28.69,20,14.35-20,28.69-20,14.35,20,28.69,20,14.35-20,28.69-20,14.35,20,28.69,20,14.35-20,28.69-20,14.35,20,28.69,20,14.35-20,28.69-20,14.35,20,28.69,20,14.35-20,28.69-20,14.35,20,28.69,20,14.35-20,28.69-20,14.35,20,28.69,20,14.35-20,28.69-20,14.35,20,28.69,20,14.35-20,28.69-20,14.35,20,28.69,20,14.35-20,28.69-20,14.35,20,28.69,20,14.35-20,28.69-20,14.35,20,28.69,20,14.35-20,28.69-20,14.35,20,28.69,20,14.35-20,28.69-20,14.35,20,28.69,20,14.35-20,28.69-20,14.35,20,28.69,20,14.35-20,28.7-20,14.35,20,28.69,20,14.35-20,28.69-20,14.35,20,28.69,20,14.35-20,28.69-20,14.35,20,28.7,20,14.35-20,28.7-20,14.34,20,28.69,20,14.35-20,28.69-20,14.34,20,28.69,20,14.35-20,28.69-20,14.35,20,28.69,20,14.35-20,28.69-20,14.35,20,28.69,20,14.35-20,28.7-20,14.35,20,28.69,20,14.35-20,28.69-20,14.35,20,28.69,20,14.35-20,28.69-20,14.35,20,28.7,20,14.35-20,28.7-20,14.35,20,28.7,20,14.35-20,28.7-20,14.35,20,28.7,20,14.35-20,28.7-20,14.35,20,28.7,20,14.35-20,28.7-20,14.35,20,28.69,20,14.35-20,28.7-20,14.35,20,28.7,20,14.35-20,28.7-20,14.35,20,28.7,20,14.35-20,28.7-20,14.35,20,28.7,20,14.35-20,28.7-20,14.35,20,28.7,20"/><path class="cls-1" d="M27.43,1321.83c14.34,0,14.34,20,28.69,20s14.35-20,28.69-20,14.35,20,28.69,20,14.35-20,28.69-20,14.35,20,28.69,20,14.35-20,28.69-20,14.35,20,28.69,20,14.35-20,28.69-20,14.35,20,28.69,20,14.35-20,28.69-20,14.35,20,28.69,20,14.35-20,28.69-20,14.35,20,28.69,20,14.35-20,28.69-20,14.35,20,28.69,20,14.35-20,28.69-20,14.35,20,28.69,20,14.35-20,28.69-20,14.35,20,28.69,20,14.35-20,28.69-20,14.35,20,28.69,20,14.35-20,28.69-20,14.35,20,28.69,20,14.35-20,28.69-20,14.35,20,28.69,20,14.35-20,28.69-20,14.35,20,28.69,20,14.35-20,28.69-20,14.35,20,28.69,20,14.35-20,28.7-20,14.35,20,28.69,20,14.35-20,28.69-20,14.35,20,28.69,20,14.35-20,28.69-20,14.35,20,28.7,20,14.35-20,28.7-20,14.34,20,28.69,20,14.35-20,28.69-20,14.34,20,28.69,20,14.35-20,28.69-20,14.35,20,28.69,20,14.35-20,28.69-20,14.35,20,28.69,20,14.35-20,28.7-20,14.35,20,28.69,20,14.35-20,28.69-20,14.35,20,28.69,20,14.35-20,28.69-20,14.35,20,28.7,20,14.35-20,28.7-20,14.35,20,28.7,20,14.35-20,28.7-20,14.35,20,28.7,20,14.35-20,28.7-20,14.35,20,28.7,20,14.35-20,28.7-20,14.35,20,28.69,20,14.35-20,28.7-20,14.35,20,28.7,20,14.35-20,28.7-20,14.35,20,28.7,20,14.35-20,28.7-20,14.35,20,28.7,20,14.35-20,28.7-20,14.35,20,28.7,20"/><path class="cls-1" d="M27.43,1350.05c14.34,0,14.34,20,28.69,20s14.35-20,28.69-20,14.35,20,28.69,20,14.35-20,28.69-20,14.35,20,28.69,20,14.35-20,28.69-20,14.35,20,28.69,20,14.35-20,28.69-20,14.35,20,28.69,20,14.35-20,28.69-20,14.35,20,28.69,20,14.35-20,28.69-20,14.35,20,28.69,20,14.35-20,28.69-20,14.35,20,28.69,20,14.35-20,28.69-20,14.35,20,28.69,20,14.35-20,28.69-20,14.35,20,28.69,20,14.35-20,28.69-20,14.35,20,28.69,20,14.35-20,28.69-20,14.35,20,28.69,20,14.35-20,28.69-20,14.35,20,28.69,20,14.35-20,28.69-20,14.35,20,28.69,20,14.35-20,28.69-20,14.35,20,28.69,20,14.35-20,28.7-20,14.35,20,28.69,20,14.35-20,28.69-20,14.35,20,28.69,20,14.35-20,28.69-20,14.35,20,28.7,20,14.35-20,28.7-20,14.34,20,28.69,20,14.35-20,28.69-20,14.34,20,28.69,20,14.35-20,28.69-20,14.35,20,28.69,20,14.35-20,28.69-20,14.35,20,28.69,20,14.35-20,28.7-20,14.35,20,28.69,20,14.35-20,28.69-20,14.35,20,28.69,20,14.35-20,28.69-20,14.35,20,28.7,20,14.35-20,28.7-20,14.35,20,28.7,20,14.35-20,28.7-20,14.35,20,28.7,20,14.35-20,28.7-20,14.35,20,28.7,20,14.35-20,28.7-20,14.35,20,28.69,20,14.35-20,28.7-20,14.35,20,28.7,20,14.35-20,28.7-20,14.35,20,28.7,20,14.35-20,28.7-20,14.35,20,28.7,20,14.35-20,28.7-20,14.35,20,28.7,20"/><path class="cls-1" d="M27.43,1378.26c14.34,0,14.34,20,28.69,20s14.35-20,28.69-20,14.35,20,28.69,20,14.35-20,28.69-20,14.35,20,28.69,20,14.35-20,28.69-20,14.35,20,28.69,20,14.35-20,28.69-20,14.35,20,28.69,20,14.35-20,28.69-20,14.35,20,28.69,20,14.35-20,28.69-20,14.35,20,28.69,20,14.35-20,28.69-20,14.35,20,28.69,20,14.35-20,28.69-20,14.35,20,28.69,20,14.35-20,28.69-20,14.35,20,28.69,20,14.35-20,28.69-20,14.35,20,28.69,20,14.35-20,28.69-20,14.35,20,28.69,20,14.35-20,28.69-20,14.35,20,28.69,20,14.35-20,28.69-20,14.35,20,28.69,20,14.35-20,28.69-20,14.35,20,28.69,20,14.35-20,28.7-20,14.35,20,28.69,20,14.35-20,28.69-20,14.35,20,28.69,20,14.35-20,28.69-20,14.35,20,28.7,20,14.35-20,28.7-20,14.34,20,28.69,20,14.35-20,28.69-20,14.34,20,28.69,20,14.35-20,28.69-20,14.35,20,28.69,20,14.35-20,28.69-20,14.35,20,28.69,20,14.35-20,28.7-20,14.35,20,28.69,20,14.35-20,28.69-20,14.35,20,28.69,20,14.35-20,28.69-20,14.35,20,28.7,20,14.35-20,28.7-20,14.35,20,28.7,20,14.35-20,28.7-20,14.35,20,28.7,20,14.35-20,28.7-20,14.35,20,28.7,20,14.35-20,28.7-20,14.35,20,28.69,20,14.35-20,28.7-20,14.35,20,28.7,20,14.35-20,28.7-20,14.35,20,28.7,20,14.35-20,28.7-20,14.35,20,28.7,20,14.35-20,28.7-20,14.35,20,28.7,20"/><path class="cls-1" d="M27.43,1406.48c14.34,0,14.34,20,28.69,20s14.35-20,28.69-20,14.35,20,28.69,20,14.35-20,28.69-20,14.35,20,28.69,20,14.35-20,28.69-20,14.35,20,28.69,20,14.35-20,28.69-20,14.35,20,28.69,20,14.35-20,28.69-20,14.35,20,28.69,20,14.35-20,28.69-20,14.35,20,28.69,20,14.35-20,28.69-20,14.35,20,28.69,20,14.35-20,28.69-20,14.35,20,28.69,20,14.35-20,28.69-20,14.35,20,28.69,20,14.35-20,28.69-20,14.35,20,28.69,20,14.35-20,28.69-20,14.35,20,28.69,20,14.35-20,28.69-20,14.35,20,28.69,20,14.35-20,28.69-20,14.35,20,28.69,20,14.35-20,28.69-20,14.35,20,28.69,20,14.35-20,28.7-20,14.35,20,28.69,20,14.35-20,28.69-20,14.35,20,28.69,20,14.35-20,28.69-20,14.35,20,28.7,20,14.35-20,28.7-20,14.34,20,28.69,20,14.35-20,28.69-20,14.34,20,28.69,20,14.35-20,28.69-20,14.35,20,28.69,20,14.35-20,28.69-20,14.35,20,28.69,20,14.35-20,28.7-20,14.35,20,28.69,20,14.35-20,28.69-20,14.35,20,28.69,20,14.35-20,28.69-20,14.35,20,28.7,20,14.35-20,28.7-20,14.35,20,28.7,20,14.35-20,28.7-20,14.35,20,28.7,20,14.35-20,28.7-20,14.35,20,28.7,20,14.35-20,28.7-20,14.35,20,28.69,20,14.35-20,28.7-20,14.35,20,28.7,20,14.35-20,28.7-20,14.35,20,28.7,20,14.35-20,28.7-20,14.35,20,28.7,20,14.35-20,28.7-20,14.35,20,28.7,20"/><path class="cls-1" d="M27.43,1434.69c14.34,0,14.34,20,28.69,20s14.35-20,28.69-20,14.35,20,28.69,20,14.35-20,28.69-20,14.35,20,28.69,20,14.35-20,28.69-20,14.35,20,28.69,20,14.35-20,28.69-20,14.35,20,28.69,20,14.35-20,28.69-20,14.35,20,28.69,20,14.35-20,28.69-20,14.35,20,28.69,20,14.35-20,28.69-20,14.35,20,28.69,20,14.35-20,28.69-20,14.35,20,28.69,20,14.35-20,28.69-20,14.35,20,28.69,20,14.35-20,28.69-20,14.35,20,28.69,20,14.35-20,28.69-20,14.35,20,28.69,20,14.35-20,28.69-20,14.35,20,28.69,20,14.35-20,28.69-20,14.35,20,28.69,20,14.35-20,28.69-20,14.35,20,28.69,20,14.35-20,28.7-20,14.35,20,28.69,20,14.35-20,28.69-20,14.35,20,28.69,20,14.35-20,28.69-20,14.35,20,28.7,20,14.35-20,28.7-20,14.34,20,28.69,20,14.35-20,28.69-20,14.34,20,28.69,20,14.35-20,28.69-20,14.35,20,28.69,20,14.35-20,28.69-20,14.35,20,28.69,20,14.35-20,28.7-20,14.35,20,28.69,20,14.35-20,28.69-20,14.35,20,28.69,20,14.35-20,28.69-20,14.35,20,28.7,20,14.35-20,28.7-20,14.35,20,28.7,20,14.35-20,28.7-20,14.35,20,28.7,20,14.35-20,28.7-20,14.35,20,28.7,20,14.35-20,28.7-20,14.35,20,28.69,20,14.35-20,28.7-20,14.35,20,28.7,20,14.35-20,28.7-20,14.35,20,28.7,20,14.35-20,28.7-20,14.35,20,28.7,20,14.35-20,28.7-20,14.35,20,28.7,20"/><path class="cls-1" d="M27.43,1462.9c14.34,0,14.34,20,28.69,20s14.35-20,28.69-20,14.35,20,28.69,20,14.35-20,28.69-20,14.35,20,28.69,20,14.35-20,28.69-20,14.35,20,28.69,20,14.35-20,28.69-20,14.35,20,28.69,20,14.35-20,28.69-20,14.35,20,28.69,20,14.35-20,28.69-20,14.35,20,28.69,20,14.35-20,28.69-20,14.35,20,28.69,20,14.35-20,28.69-20,14.35,20,28.69,20,14.35-20,28.69-20,14.35,20,28.69,20,14.35-20,28.69-20,14.35,20,28.69,20,14.35-20,28.69-20,14.35,20,28.69,20,14.35-20,28.69-20,14.35,20,28.69,20,14.35-20,28.69-20,14.35,20,28.69,20,14.35-20,28.69-20,14.35,20,28.69,20,14.35-20,28.7-20,14.35,20,28.69,20,14.35-20,28.69-20,14.35,20,28.69,20,14.35-20,28.69-20,14.35,20,28.7,20,14.35-20,28.7-20,14.34,20,28.69,20,14.35-20,28.69-20,14.34,20,28.69,20,14.35-20,28.69-20,14.35,20,28.69,20,14.35-20,28.69-20,14.35,20,28.69,20,14.35-20,28.7-20,14.35,20,28.69,20,14.35-20,28.69-20,14.35,20,28.69,20,14.35-20,28.69-20,14.35,20,28.7,20,14.35-20,28.7-20,14.35,20,28.7,20,14.35-20,28.7-20,14.35,20,28.7,20,14.35-20,28.7-20,14.35,20,28.7,20,14.35-20,28.7-20,14.35,20,28.69,20,14.35-20,28.7-20,14.35,20,28.7,20,14.35-20,28.7-20,14.35,20,28.7,20,14.35-20,28.7-20,14.35,20,28.7,20,14.35-20,28.7-20,14.35,20,28.7,20"/><path class="cls-1" d="M27.43,1491.12c14.34,0,14.34,20,28.69,20s14.35-20,28.69-20,14.35,20,28.69,20,14.35-20,28.69-20,14.35,20,28.69,20,14.35-20,28.69-20,14.35,20,28.69,20,14.35-20,28.69-20,14.35,20,28.69,20,14.35-20,28.69-20,14.35,20,28.69,20,14.35-20,28.69-20,14.35,20,28.69,20,14.35-20,28.69-20,14.35,20,28.69,20,14.35-20,28.69-20,14.35,20,28.69,20,14.35-20,28.69-20,14.35,20,28.69,20,14.35-20,28.69-20,14.35,20,28.69,20,14.35-20,28.69-20,14.35,20,28.69,20,14.35-20,28.69-20,14.35,20,28.69,20,14.35-20,28.69-20,14.35,20,28.69,20,14.35-20,28.69-20,14.35,20,28.69,20,14.35-20,28.7-20,14.35,20,28.69,20,14.35-20,28.69-20,14.35,20,28.69,20,14.35-20,28.69-20,14.35,20,28.7,20,14.35-20,28.7-20,14.34,20,28.69,20,14.35-20,28.69-20,14.34,20,28.69,20,14.35-20,28.69-20,14.35,20,28.69,20,14.35-20,28.69-20,14.35,20,28.69,20,14.35-20,28.7-20,14.35,20,28.69,20,14.35-20,28.69-20,14.35,20,28.69,20,14.35-20,28.69-20,14.35,20,28.7,20,14.35-20,28.7-20,14.35,20,28.7,20,14.35-20,28.7-20,14.35,20,28.7,20,14.35-20,28.7-20,14.35,20,28.7,20,14.35-20,28.7-20,14.35,20,28.69,20,14.35-20,28.7-20,14.35,20,28.7,20,14.35-20,28.7-20,14.35,20,28.7,20,14.35-20,28.7-20,14.35,20,28.7,20,14.35-20,28.7-20,14.35,20,28.7,20"/><path class="cls-1" d="M27.43,1519.33c14.34,0,14.34,20,28.69,20s14.35-20,28.69-20,14.35,20,28.69,20,14.35-20,28.69-20,14.35,20,28.69,20,14.35-20,28.69-20,14.35,20,28.69,20,14.35-20,28.69-20,14.35,20,28.69,20,14.35-20,28.69-20,14.35,20,28.69,20,14.35-20,28.69-20,14.35,20,28.69,20,14.35-20,28.69-20,14.35,20,28.69,20,14.35-20,28.69-20,14.35,20,28.69,20,14.35-20,28.69-20,14.35,20,28.69,20,14.35-20,28.69-20,14.35,20,28.69,20,14.35-20,28.69-20,14.35,20,28.69,20,14.35-20,28.69-20,14.35,20,28.69,20,14.35-20,28.69-20,14.35,20,28.69,20,14.35-20,28.69-20,14.35,20,28.69,20,14.35-20,28.7-20,14.35,20,28.69,20,14.35-20,28.69-20,14.35,20,28.69,20,14.35-20,28.69-20,14.35,20,28.7,20,14.35-20,28.7-20,14.34,20,28.69,20,14.35-20,28.69-20,14.34,20,28.69,20,14.35-20,28.69-20,14.35,20,28.69,20,14.35-20,28.69-20,14.35,20,28.69,20,14.35-20,28.7-20,14.35,20,28.69,20,14.35-20,28.69-20,14.35,20,28.69,20,14.35-20,28.69-20,14.35,20,28.7,20,14.35-20,28.7-20,14.35,20,28.7,20,14.35-20,28.7-20,14.35,20,28.7,20,14.35-20,28.7-20,14.35,20,28.7,20,14.35-20,28.7-20,14.35,20,28.69,20,14.35-20,28.7-20,14.35,20,28.7,20,14.35-20,28.7-20,14.35,20,28.7,20,14.35-20,28.7-20,14.35,20,28.7,20,14.35-20,28.7-20,14.35,20,28.7,20"/><path class="cls-1" d="M27.43,1547.55c14.34,0,14.34,20,28.69,20s14.35-20,28.69-20,14.35,20,28.69,20,14.35-20,28.69-20,14.35,20,28.69,20,14.35-20,28.69-20,14.35,20,28.69,20,14.35-20,28.69-20,14.35,20,28.69,20,14.35-20,28.69-20,14.35,20,28.69,20,14.35-20,28.69-20,14.35,20,28.69,20,14.35-20,28.69-20,14.35,20,28.69,20,14.35-20,28.69-20,14.35,20,28.69,20,14.35-20,28.69-20,14.35,20,28.69,20,14.35-20,28.69-20,14.35,20,28.69,20,14.35-20,28.69-20,14.35,20,28.69,20,14.35-20,28.69-20,14.35,20,28.69,20,14.35-20,28.69-20,14.35,20,28.69,20,14.35-20,28.69-20,14.35,20,28.69,20,14.35-20,28.7-20,14.35,20,28.69,20,14.35-20,28.69-20,14.35,20,28.69,20,14.35-20,28.69-20,14.35,20,28.7,20,14.35-20,28.7-20,14.34,20,28.69,20,14.35-20,28.69-20,14.34,20,28.69,20,14.35-20,28.69-20,14.35,20,28.69,20,14.35-20,28.69-20,14.35,20,28.69,20,14.35-20,28.7-20,14.35,20,28.69,20,14.35-20,28.69-20,14.35,20,28.69,20,14.35-20,28.69-20,14.35,20,28.7,20,14.35-20,28.7-20,14.35,20,28.7,20,14.35-20,28.7-20,14.35,20,28.7,20,14.35-20,28.7-20,14.35,20,28.7,20,14.35-20,28.7-20,14.35,20,28.69,20,14.35-20,28.7-20,14.35,20,28.7,20,14.35-20,28.7-20,14.35,20,28.7,20,14.35-20,28.7-20,14.35,20,28.7,20,14.35-20,28.7-20,14.35,20,28.7,20"/></svg>